<svg width="24" height="24" viewBox="0 0 24 24" fill="none" xmlns="http://www.w3.org/2000/svg">
<path d="M14.2745 11.9028C14.4853 11.6871 14.6531 11.3874 14.8009 11.0539C14.6521 11.0313 14.5035 11.0088 14.3502 11.0088C13.5385 11.0088 12.776 11.332 12.204 11.9191C11.0205 13.134 11.0205 15.1105 12.204 16.3246C12.776 16.9118 13.5385 17.235 14.3502 17.235C15.1611 17.235 15.9236 16.9118 16.4955 16.3246C16.7846 16.0279 17.0069 15.6806 17.157 15.3029C16.2779 14.9057 15.6011 14.6277 15.6011 14.6277C15.6013 14.6278 12.9462 13.2658 14.2744 11.9029L14.2745 11.9028Z" fill="#83869D"/>
<path d="M14.3528 7.50364C14.9969 7.50364 15.6258 7.60028 16.2259 7.78557C16.2374 7.74271 16.2502 7.7023 16.2609 7.65781C16.4983 6.68508 16.4345 5.83001 16.1183 5.74899C15.9621 5.70923 15.7724 5.8673 15.5933 6.15624C15.6031 5.73254 15.6054 5.35022 15.6054 5.08848C15.6054 3.7256 14.2777 1 11.6226 1C8.96752 1 7.63989 3.7256 7.63989 5.08848C7.63989 5.3502 7.64211 5.73254 7.65196 6.15624C7.47209 5.8673 7.28334 5.70922 7.12615 5.74899C6.80976 5.82998 6.7461 6.68508 6.9828 7.65781C7.20585 8.57759 7.61699 9.26433 7.92578 9.27134C8.05849 10.0228 8.25582 10.7237 8.54095 11.2727C8.8475 10.6108 9.26089 9.98937 9.79348 9.44118C11.0103 8.1914 12.63 7.5037 14.3529 7.5037L14.3528 7.50364Z" fill="#83869D"/>
<path d="M21.8259 19.0426C21.6272 18.3737 21.3367 17.7265 20.9133 17.3543C20.7388 17.201 20.49 17.0303 20.204 16.8535C20.1508 16.9749 20.1122 17.1012 20.0508 17.2204L21.8259 19.0426Z" fill="#83869D"/>
<path d="M14.3517 20.7422C12.6296 20.7422 11.0108 20.0539 9.79232 18.8047C8.61949 17.5999 8.00192 16.0441 7.92304 14.4639C7.75381 14.569 7.63776 14.6298 7.63776 14.6298C7.63776 14.6298 3.48881 16.3337 2.32731 17.3554C1.16606 18.377 1 21.443 1 21.443H18.8008L17.3693 19.9735C16.4438 20.4781 15.4121 20.7421 14.3515 20.7421L14.3517 20.7422Z" fill="#83869D"/>
<path d="M19.0997 17.3433C20.5638 15.0757 20.3217 11.9899 18.3767 9.99238C16.1541 7.71218 12.5514 7.71218 10.33 9.99238C8.10875 12.2734 8.10875 15.9716 10.33 18.2528C12.2758 20.2502 15.2816 20.4979 17.4908 18.9949L21.0585 22.6574C21.5031 23.1137 22.223 23.1137 22.6677 22.6574C23.1122 22.2011 23.1122 21.4621 22.6677 21.0056L19.0997 17.3433ZM11.6707 16.8761C10.1921 15.3582 10.1921 12.8874 11.6707 11.3696C13.1493 9.8517 15.5562 9.8517 17.0348 11.3696C18.5134 12.8874 18.5134 15.3583 17.0348 16.8761C15.5561 18.3938 13.1498 18.3938 11.6707 16.8761Z" fill="#83869D"/>
</svg>
