<svg width="579" height="450" viewBox="0 0 579 450" fill="none" xmlns="http://www.w3.org/2000/svg">
<g id="No Chat History">
<path id="Fill 1" fill-rule="evenodd" clip-rule="evenodd" d="M313.149 0C260.256 0 211.641 18.3349 173.255 49.0106H111.215C103.155 49.0106 96.5604 55.627 96.5604 63.7138C96.5604 71.8005 103.155 78.4169 111.215 78.4169H142.789H152.041C160.102 78.4169 166.696 85.0334 166.696 93.1201C166.696 97.1586 165.045 100.844 162.388 103.501C159.74 106.167 156.067 107.823 152.041 107.823H132.302H121.403H68.2273C60.167 107.823 53.5723 114.44 53.5723 122.526C53.5723 130.613 60.167 137.23 68.2273 137.23H106.295C94.8037 164.325 88.4385 194.138 88.4385 225.449C88.4385 236.809 89.2788 247.974 90.8908 258.884C91.565 263.442 92.3759 267.961 93.3236 272.43C120.973 268.186 150.302 264.775 180.922 262.285L183.227 264.393L185.396 261.932C222.18 259.06 260.792 257.531 300.614 257.531C385.223 257.531 464.399 264.432 532.095 276.43C534.704 265.079 536.463 253.404 537.293 241.465C537.674 236.172 537.86 230.83 537.86 225.449C537.86 100.932 437.258 0 313.149 0Z" fill="#F1F2F7"/>
<path id="Fill 3" fill-rule="evenodd" clip-rule="evenodd" d="M23.7264 107.145H14.8451C6.6803 107.145 0 113.895 0 122.145C0 130.395 6.6803 137.145 14.8451 137.145H23.7264C31.8913 137.145 38.5716 130.395 38.5716 122.145C38.5716 113.895 31.8913 107.145 23.7264 107.145Z" fill="#F1F2F7"/>
<g id="Group 7">
<mask id="mask0_3778_47382" style="mask-type:alpha" maskUnits="userSpaceOnUse" x="93" y="257" width="486" height="193">
<path id="Clip 6" fill-rule="evenodd" clip-rule="evenodd" d="M578.416 257.854V450H335.714H93.0117V257.854H578.416Z" fill="white"/>
</mask>
<g mask="url(#mask0_3778_47382)">
<path id="Fill 5" fill-rule="evenodd" clip-rule="evenodd" d="M578.416 332.143C578.416 340.178 571.823 346.753 563.765 346.753H470.18C466.155 346.753 462.484 348.399 459.837 351.049C457.18 353.688 455.528 357.351 455.528 361.364C455.528 369.399 462.121 375.974 470.18 375.974H487.567C491.59 375.974 495.264 377.62 497.911 380.27C500.568 382.909 502.219 386.571 502.219 390.584C502.219 398.62 495.625 405.195 487.567 405.195H447.588C410.03 433.325 363.361 450 312.784 450C204.764 450 114.549 373.977 93.0117 272.659C120.654 268.441 149.977 265.052 180.589 262.578L182.893 264.672L185.062 262.227C221.837 259.373 260.439 257.854 300.252 257.854C384.84 257.854 463.997 264.711 531.677 276.633C528.386 290.834 523.737 304.51 517.876 317.532H563.765C567.799 317.532 571.452 319.178 574.109 321.828C576.766 324.467 578.416 328.13 578.416 332.143Z" fill="#E8EBF2"/>
</g>
</g>
<path id="Fill 8" fill-rule="evenodd" clip-rule="evenodd" d="M535.707 240.8C534.878 252.967 533.122 264.864 530.516 276.431C462.91 264.204 383.839 257.173 299.342 257.173C259.573 257.173 221.013 258.73 184.277 261.657L209.753 232.14L249.383 258.001L303.031 243.189L395.32 257.173L435.385 243.189L445.532 257.173L469.743 239.203L492.366 259.939L528.048 231.431L535.707 240.8Z" fill="#E0E2EE"/>
<path id="Fill 10" fill-rule="evenodd" clip-rule="evenodd" d="M386.19 253.712C396.338 238.961 402.152 221.467 402.001 202.746C401.586 150.676 355.199 108.834 298.393 109.287C241.588 109.741 195.876 152.322 196.292 204.392C196.708 256.462 243.095 298.305 299.9 297.852C320.195 297.689 339.074 292.147 354.939 282.716L397.38 292.71L386.19 253.712Z" fill="#D8DBEA"/>
<path id="Fill 12" fill-rule="evenodd" clip-rule="evenodd" d="M269.151 201.34C269.198 207.257 264.439 212.092 258.523 212.139C252.604 212.187 247.769 207.428 247.723 201.511C247.676 195.594 252.433 190.759 258.351 190.711C264.268 190.664 269.103 195.423 269.151 201.34Z" fill="#BEC0D6"/>
<path id="Fill 14" fill-rule="evenodd" clip-rule="evenodd" d="M307.717 201.339C307.765 207.257 303.006 212.092 297.088 212.139C291.171 212.186 286.336 207.428 286.289 201.511C286.241 195.594 291 190.758 296.917 190.711C302.834 190.664 307.669 195.423 307.717 201.339Z" fill="#BEC0D6"/>
<path id="Fill 16" fill-rule="evenodd" clip-rule="evenodd" d="M346.284 201.339C346.331 207.256 341.572 212.091 335.655 212.139C329.737 212.186 324.902 207.428 324.856 201.51C324.808 195.593 329.566 190.758 335.484 190.711C341.4 190.663 346.236 195.423 346.284 201.339Z" fill="#BEC0D6"/>
<path id="Fill 18" fill-rule="evenodd" clip-rule="evenodd" d="M184.286 261.428L182.207 263.571L180 261.735C181.421 261.624 182.854 261.522 184.286 261.428Z" fill="#F1F2F7"/>
<path id="Fill 20" fill-rule="evenodd" clip-rule="evenodd" d="M185.578 276.431C185.578 283.236 187.754 289.571 191.495 294.903L187.525 309.13L202.98 305.37C208.791 308.75 215.681 310.716 223.078 310.716C243.79 310.716 260.578 295.366 260.578 276.431C260.578 257.495 243.79 242.145 223.078 242.145C202.367 242.145 185.578 257.495 185.578 276.431Z" fill="url(#paint0_linear_3778_47382)"/>
<path id="Fill 22" fill-rule="evenodd" clip-rule="evenodd" d="M232.717 276.428C232.717 278.794 234.634 280.713 237.002 280.713C239.368 280.713 241.288 278.794 241.288 276.428C241.288 274.061 239.368 272.142 237.002 272.142C234.634 272.142 232.717 274.061 232.717 276.428Z" fill="white"/>
<path id="Fill 24" fill-rule="evenodd" clip-rule="evenodd" d="M219.867 276.428C219.867 278.794 221.786 280.713 224.153 280.713C226.519 280.713 228.439 278.794 228.439 276.428C228.439 274.061 226.519 272.142 224.153 272.142C221.786 272.142 219.867 274.061 219.867 276.428Z" fill="white"/>
<path id="Fill 26" fill-rule="evenodd" clip-rule="evenodd" d="M204.855 276.428C204.855 278.794 206.774 280.713 209.141 280.713C211.507 280.713 213.427 278.794 213.427 276.428C213.427 274.061 211.507 272.142 209.141 272.142C206.774 272.142 204.855 274.061 204.855 276.428Z" fill="white"/>
<path id="Fill 28" fill-rule="evenodd" clip-rule="evenodd" d="M180 261.983C149.391 264.477 120.072 267.893 92.4319 272.144C91.4845 267.667 90.6739 263.141 90 258.576L137.377 222.858L180 261.983Z" fill="#E0E2EE"/>
<path id="Fill 30" fill-rule="evenodd" clip-rule="evenodd" d="M394.294 335.358C394.294 339.5 356.877 342.858 310.722 342.858C264.566 342.858 227.15 339.5 227.15 335.358C227.15 331.217 264.566 327.858 310.722 327.858C356.877 327.858 394.294 331.217 394.294 335.358Z" fill="#D8DBEA"/>
<path id="Fill 32" fill-rule="evenodd" clip-rule="evenodd" d="M531.428 405C523.178 405 516.428 398.25 516.428 390C516.428 381.75 523.178 375 531.428 375C539.678 375 546.428 381.75 546.428 390C546.428 398.25 539.678 405 531.428 405Z" fill="#E1E3EF"/>
</g>
<defs>
<linearGradient id="paint0_linear_3778_47382" x1="223.078" y1="207.859" x2="154.781" y2="282.559" gradientUnits="userSpaceOnUse">
<stop stop-color="#FF8960"/>
<stop offset="1" stop-color="#FF62A5"/>
</linearGradient>
</defs>
</svg>
