<svg width="208" height="208" viewBox="0 0 208 208" fill="none" xmlns="http://www.w3.org/2000/svg">
<circle opacity="0.05" cx="104" cy="104" r="104" fill="#0A71B3"/>
<g clip-path="url(#clip0_319_4765)">
<path d="M105.555 140.824C108.442 142.96 111.89 144.207 115.476 144.41C119.062 144.614 122.63 143.766 125.74 141.97C128.851 140.174 131.369 137.509 132.986 134.301C134.602 131.094 135.247 127.484 134.841 123.916L105.555 140.824Z" fill="#0A71B3"/>
<path d="M137.838 86.1273L121.709 71.0211C116.232 65.6429 109.116 62.2486 101.489 61.377C93.8627 60.5054 86.1636 62.2065 79.6144 66.2103C73.0651 70.214 68.0411 76.2909 65.34 83.4761C62.6389 90.6613 62.4155 98.5429 64.7053 105.869L70.6214 126.078C71.4074 128.764 72.793 131.235 74.6738 133.307C76.5546 135.379 78.8814 136.996 81.4786 138.037C84.0758 139.078 86.8755 139.516 89.6665 139.317C92.4575 139.118 95.1668 138.288 97.59 136.889L134.444 115.611C136.943 114.168 139.069 112.161 140.652 109.749C142.235 107.338 143.231 104.589 143.561 101.723C143.891 98.8572 143.545 95.9538 142.551 93.2456C141.557 90.5374 139.943 88.0995 137.838 86.1273Z" fill="#0A71B3"/>
</g>
<path d="M145.324 179.701H150V182.348H145.324V187H142.676V182.348H138V179.701H142.676V175H145.324V179.701Z" fill="#EF9CA6"/>
<path d="M171.855 131.017L175.161 134.324L173.289 136.196L169.983 132.889L166.693 136.179L164.821 134.307L168.11 131.017L164.804 127.711L166.676 125.839L169.983 129.145L173.307 125.821L175.179 127.693L171.855 131.017Z" fill="#EFD89C"/>
<path d="M102.339 16.5028L105.646 19.8094L103.774 21.6814L100.467 18.3748L97.1777 21.6639L95.3057 19.7919L98.5949 16.5028L95.2882 13.1961L97.1602 11.3241L100.467 14.6308L103.791 11.3066L105.663 13.1786L102.339 16.5028Z" fill="#EFD89C"/>
<path d="M47.3389 154.503L50.6455 157.809L48.7735 159.681L45.4669 156.375L42.1777 159.664L40.3057 157.792L43.5949 154.503L40.2882 151.196L42.1602 149.324L45.4669 152.631L48.791 149.307L50.663 151.179L47.3389 154.503Z" fill="#EFD89C"/>
<path d="M38.3237 63.701H43V66.3485H38.3237V71H35.6763V66.3485H31V63.701H35.6763V59H38.3237V63.701Z" fill="#EF9CA6"/>
<path d="M157.324 35.701H162V38.3485H157.324V43H154.676V38.3485H150V35.701H154.676V31H157.324V35.701Z" fill="#EF9CA6"/>
<path d="M78 48C78 50.7614 75.7614 53 73 53C70.2386 53 68 50.7614 68 48C68 45.2386 70.2386 43 73 43C75.7614 43 78 45.2386 78 48ZM70.1931 48C70.1931 49.5502 71.4498 50.8069 73 50.8069C74.5502 50.8069 75.8069 49.5502 75.8069 48C75.8069 46.4498 74.5502 45.1931 73 45.1931C71.4498 45.1931 70.1931 46.4498 70.1931 48Z" fill="#B4FFC8"/>
<path d="M194 101C194 103.761 191.761 106 189 106C186.239 106 184 103.761 184 101C184 98.2386 186.239 96 189 96C191.761 96 194 98.2386 194 101ZM186.193 101C186.193 102.55 187.45 103.807 189 103.807C190.55 103.807 191.807 102.55 191.807 101C191.807 99.4498 190.55 98.1931 189 98.1931C187.45 98.1931 186.193 99.4498 186.193 101Z" fill="#B4FFC8"/>
<path d="M83 190C83 192.761 80.7614 195 78 195C75.2386 195 73 192.761 73 190C73 187.239 75.2386 185 78 185C80.7614 185 83 187.239 83 190ZM75.1931 190C75.1931 191.55 76.4498 192.807 78 192.807C79.5502 192.807 80.8069 191.55 80.8069 190C80.8069 188.45 79.5502 187.193 78 187.193C76.4498 187.193 75.1931 188.45 75.1931 190Z" fill="#B4FFC8"/>
<defs>
<clipPath id="clip0_319_4765">
<rect width="88.6805" height="88.6805" fill="white" transform="translate(43 87.3403) rotate(-30)"/>
</clipPath>
</defs>
</svg>
