<svg width="75" height="80" viewBox="0 0 75 80" fill="none" xmlns="http://www.w3.org/2000/svg">
<g clip-path="url(#clip0_2157_33133)">
<path d="M32.076 25.6673C32.0204 25.1121 31.8397 24.5768 31.5474 24.1015C31.255 23.6262 30.8587 23.2234 30.3883 22.9235C29.9178 22.6235 29.3855 22.4341 28.8312 22.3695C28.277 22.305 27.7154 22.3669 27.1885 22.5508L27.4561 22.5781C26.2564 22.8181 25.1902 23.4991 24.4682 24.4869C24.1155 24.9806 23.8731 25.5444 23.7574 26.14C23.6417 26.7357 23.6553 27.3492 23.7975 27.9391C24.1007 29.1106 24.9956 30.1269 26.1412 30.5169C26.7782 30.7337 27.4619 30.7602 28.1345 30.7831C28.5711 30.7979 29.0157 30.8112 29.4365 30.6942C29.9779 30.5265 30.4538 30.1948 30.7985 29.7448C31.1398 29.2965 31.4115 28.7992 31.6041 28.2697C31.9303 27.4415 32.1646 26.553 32.076 25.6673Z" fill="#2F2E41"/>
<path d="M41.5872 79.6415C40.6361 76.0643 42.7482 72.5777 45.2163 70.164C46.5316 68.8777 47.9964 67.7594 49.4248 66.6044C50.7955 65.5082 52.1008 64.3327 53.334 63.0838C55.7153 60.6465 57.7926 57.861 59.1682 54.7299C60.4763 51.7525 61.0946 48.509 60.7884 45.2603C60.4979 42.1791 59.3935 39.1482 57.3618 36.7842C57.1087 36.4896 56.8424 36.2073 56.5629 35.9372C56.4131 35.7916 56.1834 36.0208 56.3335 36.1666C58.6022 38.3694 59.9227 41.3547 60.3696 44.4605C60.8304 47.6633 60.3556 50.9285 59.1579 53.9229C57.8821 57.1127 55.8533 59.9591 53.5005 62.443C52.3156 63.6859 51.0551 64.8545 49.7262 65.9422C48.3071 67.1112 46.8324 68.2158 45.4811 69.4651C42.9906 71.7675 40.7521 74.9347 41.0596 78.4999C41.0955 78.9146 41.1673 79.3254 41.2744 79.7277C41.287 79.7679 41.3146 79.8016 41.3516 79.8217C41.3885 79.8419 41.4319 79.8469 41.4724 79.8357C41.513 79.8245 41.5477 79.798 41.5691 79.7618C41.5905 79.7255 41.597 79.6824 41.5872 79.6415V79.6415Z" fill="#F0F0F0"/>
<path d="M51.5471 59.2775C50.0483 56.7079 48.902 53.9484 48.1391 51.0732C47.3739 48.1986 46.9911 45.2357 47.0007 42.2611C47.0116 39.2866 47.3728 36.2376 48.2949 33.4011C49.1701 30.709 50.7381 28.1416 53.2276 26.6726C54.4972 25.9278 55.9465 25.5451 57.4183 25.5659C58.9727 25.5806 60.5057 25.9898 61.9064 26.6523C63.2781 27.3012 64.5324 28.1756 65.6912 29.1504C66.7959 30.0783 67.8269 31.0906 68.7747 32.1784C70.6526 34.3378 72.1868 36.8382 73.0437 39.5798C73.9367 42.437 74.0932 45.5622 73.2644 48.4539C72.4684 51.2313 70.7245 53.5987 68.5835 55.5003C66.2698 57.5554 63.5291 59.0488 60.7655 60.4043C60.0737 60.7435 59.3783 61.075 58.6828 61.4065C58.4944 61.4963 58.6588 61.7761 58.8465 61.6866C61.7607 60.2977 64.7037 58.8967 67.3014 56.9576C69.5935 55.2467 71.6367 53.0988 72.8522 50.4825C74.1375 47.7158 74.4009 44.57 73.8682 41.585C73.3475 38.6676 72.0413 35.9372 70.2932 33.5592C69.4245 32.3828 68.459 31.281 67.4069 30.2652C66.3275 29.1993 65.1489 28.2387 63.8871 27.3965C61.3006 25.7059 58.0662 24.685 55.001 25.5558C52.2759 26.33 50.1787 28.5134 48.9307 30.9878C48.2322 32.3728 47.7614 33.8622 47.4265 35.3736C47.0998 36.863 46.8801 38.3739 46.769 39.8947C46.3237 45.9631 47.5131 52.04 50.2135 57.4928C50.5424 58.154 50.8936 58.8035 51.267 59.4412C51.2895 59.4768 51.3249 59.5023 51.3658 59.5123C51.4066 59.5222 51.4498 59.5159 51.4861 59.4947C51.5225 59.4735 51.5492 59.4389 51.5605 59.3984C51.5719 59.3579 51.5671 59.3145 51.5471 59.2775Z" fill="#F0F0F0"/>
<path d="M49.4924 56.1408C47.9936 53.5712 46.8474 50.8117 46.0845 47.9364C45.3192 45.0619 44.9364 42.099 44.946 39.1244C44.9569 36.1499 45.3181 33.1009 46.2402 30.2643C47.1154 27.5723 48.6834 25.0049 51.1729 23.5358C52.4425 22.7911 53.8918 22.4084 55.3636 22.4292C56.9181 22.4439 58.451 22.853 59.8517 23.5156C61.2234 24.1645 62.4778 25.0389 63.6365 26.0137C64.7413 26.9416 65.7722 27.9539 66.72 29.0416C68.5979 31.2011 70.1321 33.7015 70.989 36.4431C71.882 39.3003 72.0386 42.4255 71.2097 45.3172C70.4137 48.0946 68.6698 50.462 66.5288 52.3636C64.2152 54.4186 61.4744 55.9121 58.7108 57.2675C58.0191 57.6068 57.3236 57.9383 56.6281 58.2698C56.4397 58.3596 56.6042 58.6393 56.7919 58.5499C59.706 57.161 62.649 55.76 65.2467 53.8209C67.5389 52.1099 69.582 49.9621 70.7975 47.3458C72.0828 44.5791 72.3462 41.4333 71.8135 38.4482C71.2928 35.5309 69.9866 32.8005 68.2385 30.4225C67.3698 29.2461 66.4043 28.1442 65.3522 27.1285C64.2728 26.0626 63.0942 25.102 61.8324 24.2597C59.246 22.5692 56.0115 21.5482 52.9463 22.4191C50.2212 23.1933 48.124 25.3766 46.876 27.8511C46.1775 29.236 45.7067 30.7255 45.3718 32.2368C45.0451 33.7263 44.8254 35.2371 44.7144 36.7579C44.269 42.8264 45.4584 48.9033 48.1588 54.356C48.4877 55.0173 48.8389 55.6668 49.2123 56.3045C49.2348 56.3401 49.2702 56.3656 49.3111 56.3755C49.352 56.3855 49.3951 56.3792 49.4315 56.358C49.4678 56.3367 49.4945 56.3022 49.5058 56.2617C49.5172 56.2212 49.5124 56.1778 49.4924 56.1408Z" fill="#F0F0F0"/>
<path d="M19.9603 50.0622C19.8458 49.9008 19.7682 49.7163 19.7328 49.5216C19.6974 49.327 19.7051 49.127 19.7553 48.9356C19.8056 48.7443 19.8972 48.5663 20.0237 48.4142C20.1502 48.2621 20.3085 48.1396 20.4875 48.0553L24.2372 36.3145L26.8487 37.671L22.3417 48.7853C22.4634 49.0954 22.4671 49.4393 22.3522 49.7519C22.2372 50.0645 22.0116 50.3241 21.7181 50.4815C21.4246 50.6389 21.0835 50.6831 20.7595 50.6058C20.4355 50.5286 20.1511 50.3351 19.9603 50.0622H19.9603Z" fill="#FFB6B6"/>
<path d="M23.0244 37.9377C22.9886 37.8583 22.9702 37.772 22.9707 37.6848C22.9712 37.5976 22.9905 37.5115 23.0273 37.4325L24.3116 34.6713C24.4383 34.2436 24.7294 33.8836 25.1211 33.6702C25.5129 33.4568 25.9732 33.4074 26.4012 33.5329C26.8293 33.6583 27.1901 33.9484 27.4047 34.3395C27.6192 34.7306 27.6699 35.1908 27.5457 35.6192L27.1165 38.644C27.1042 38.7304 27.0735 38.813 27.0264 38.8864C26.9793 38.9598 26.917 39.0222 26.8436 39.0693C26.7702 39.1164 26.6876 39.1472 26.6012 39.1595C26.5149 39.1717 26.427 39.1653 26.3434 39.1405L23.4052 38.27C23.3215 38.2452 23.2442 38.2028 23.1785 38.1454C23.1128 38.0881 23.0603 38.0172 23.0244 37.9377Z" fill="#2F2E41"/>
<path d="M33.8575 38.4033C32.965 40.7401 33.1931 43.191 34.2922 45.7308H26.5064C26.8193 43.9238 26.6924 42.2444 25.5332 40.8647L33.8575 38.4033Z" fill="#FFB6B6"/>
<path d="M24.7456 34.1099L27.0498 32.4341L30.8204 31.3867L33.9625 32.0151L34.1472 33.7514C34.3719 35.8634 34.2743 37.9972 33.8577 40.0799L25.6883 41.9651L24.8504 40.4988C24.8504 40.4988 22.9651 38.6136 24.4314 36.5188L24.7456 34.1099Z" fill="#2F2E41"/>
<path d="M44.7587 22.3874C44.8101 22.5785 44.819 22.7785 44.7848 22.9733C44.7506 23.1682 44.6741 23.3531 44.5606 23.5152C44.4472 23.6773 44.2996 23.8125 44.1282 23.9114C43.9569 24.0102 43.7659 24.0703 43.5688 24.0874L35.9837 33.8019L34.0039 31.6246L42.0824 22.7602C42.0756 22.4272 42.1913 22.1033 42.4074 21.8498C42.6235 21.5964 42.9251 21.431 43.255 21.3851C43.5849 21.3391 43.9202 21.4158 44.1973 21.6005C44.4744 21.7853 44.6742 22.0653 44.7587 22.3874Z" fill="#FFB6B6"/>
<path d="M37.6847 32.6997C37.6908 32.7867 37.6781 32.8739 37.6475 32.9556C37.6168 33.0372 37.5689 33.1112 37.507 33.1726L35.3455 35.3179C35.0785 35.6753 34.6807 35.9122 34.2393 35.9767C33.7979 36.0412 33.3489 35.928 32.9908 35.662C32.6327 35.396 32.3947 34.9988 32.3289 34.5576C32.2632 34.1164 32.3751 33.6671 32.6401 33.3082L34.0908 30.6194C34.1322 30.5427 34.1897 30.4758 34.2593 30.4232C34.3289 30.3707 34.409 30.3338 34.4941 30.315C34.5792 30.2962 34.6674 30.296 34.7527 30.3144C34.8379 30.3328 34.9182 30.3693 34.988 30.4215L37.4427 32.2561C37.5125 32.3083 37.5703 32.3749 37.6121 32.4515C37.6539 32.528 37.6786 32.6127 37.6847 32.6997Z" fill="#2F2E41"/>
<path d="M24.7561 77.515H25.9491L26.5167 72.9131H24.7559L24.7561 77.515Z" fill="#FFB6B6"/>
<path d="M24.3511 76.927L26.2371 76.8145V77.6225L28.0302 78.8609C28.1188 78.922 28.1855 79.0099 28.2206 79.1117C28.2557 79.2134 28.2573 79.3237 28.2253 79.4265C28.1933 79.5292 28.1292 79.619 28.0425 79.6828C27.9559 79.7466 27.851 79.781 27.7434 79.781H25.498L25.111 78.9817L24.9599 79.781H24.1133L24.3511 76.927Z" fill="#2F2E41"/>
<path d="M33.1897 77.515H34.3827L34.9503 72.9131H33.1895L33.1897 77.515Z" fill="#FFB6B6"/>
<path d="M32.7866 76.927L34.6727 76.8145V77.6225L36.4658 78.8609C36.5543 78.922 36.621 79.0099 36.6561 79.1117C36.6912 79.2134 36.6929 79.3237 36.6609 79.4265C36.6288 79.5292 36.5648 79.619 36.4781 79.6828C36.3914 79.7466 36.2866 79.781 36.179 79.781H33.9336L33.5465 78.9817L33.3954 79.781H32.5488L32.7866 76.927Z" fill="#2F2E41"/>
<path d="M36.3602 51.7318V54.0783L36.1309 56.945C36.1309 56.945 36.0585 59.4483 35.9709 61.4229C35.9179 62.6232 35.8584 63.6277 35.8065 63.7575C35.7428 63.9165 35.7579 64.3501 35.7947 64.8053C35.8379 65.332 35.9093 65.8878 35.9212 66.0738C35.9439 66.4209 35.76 67.9121 35.76 67.9121C35.76 67.9121 35.5546 71.6514 35.2561 71.9498C34.9577 72.2483 35.2561 73.0971 35.2561 73.0971C33.8569 74.1288 32.0899 72.8679 32.0899 72.8679C32.4803 72.2461 31.8607 68.0018 31.8607 68.0018C31.8607 68.0018 31.7698 66.5528 31.586 66.1635C31.4022 65.7742 31.3557 63.3423 31.3557 63.3423V59.7403C31.3557 59.7403 30.8734 59.0028 30.8053 58.6589C30.7372 58.3151 30.8053 57.0996 30.8053 57.0996L30.3014 55.4019L29.9564 56.732C29.9564 56.732 29.0632 60.4486 28.9021 60.9071C28.741 61.3656 28.993 61.8251 28.993 61.8251C28.993 61.8251 29.2233 62.5323 28.993 62.8567C28.8498 63.06 28.7403 63.2849 28.6686 63.5229C28.6686 63.5229 28.5507 64.8767 28.3442 65.3612C28.1376 65.8456 27.9549 66.4425 27.9549 66.4425C27.9549 66.4425 28.0035 67.3573 27.797 67.5639C27.5904 67.7704 27.5223 68.8031 27.5223 68.8031C27.5223 68.8031 27.5677 69.972 27.2919 70.3851C27.0162 70.7982 27.0162 73.1382 27.0162 73.1382C26.538 73.4451 25.9869 73.6195 25.4193 73.6436C24.8516 73.6678 24.2877 73.5407 23.7852 73.2756C23.7852 73.2756 24.0577 73.0204 23.8511 71.8309C23.6446 70.6414 23.9993 67.4027 23.9993 67.4027C23.9993 67.4027 23.9539 66.5809 24.1831 66.2133C24.4123 65.8456 24.0674 65.1351 24.1593 64.814C24.2512 64.4928 24.5269 62.7486 24.5269 62.7486C24.5269 62.7486 24.4123 58.4589 24.4123 58.2296C24.3852 57.8216 24.2748 57.4234 24.0879 57.0596C23.8814 56.693 24.0879 54.0318 24.0879 54.0318C24.0879 54.0318 24.5745 52.6563 24.4123 52.3579C24.2501 52.0594 24.5205 51.5317 24.5205 51.5317C24.5205 51.5317 24.2685 50.9121 24.5205 50.7975C24.7724 50.6829 24.8189 50.2244 24.8189 50.2244L24.9941 47.999C24.9941 47.999 25.0601 46.989 25.2699 46.9436C25.4796 46.8981 25.3877 46.5089 25.5943 46.2331C25.6949 46.0467 25.7643 45.8451 25.7997 45.6362C25.8289 45.5086 25.8559 45.3756 25.8786 45.248C25.9435 44.902 25.9836 44.6035 25.9836 44.6035C27.3374 45.7281 34.4559 44.9398 34.4635 44.9398C34.9155 45.0382 35.4529 46.6073 35.8411 47.9752C36.1862 49.1975 36.3609 50.4617 36.3602 51.7318Z" fill="#2F2E41"/>
<path d="M31.1811 28.434C31.7 26.7271 30.7369 24.9228 29.0301 24.4039C27.3232 23.8851 25.5189 24.8481 25 26.555C24.4812 28.2618 25.4442 30.0661 27.1511 30.585C28.8579 31.1039 30.6622 30.1408 31.1811 28.434Z" fill="#FFB6B6"/>
<path d="M24.4409 28.0566L25.6917 27.7963L25.922 26.1364L26.3538 27.6586L26.9516 27.5342L27.086 26.5659L27.3379 27.4538L31.7801 26.5295C31.6886 26.0898 31.5114 25.6725 31.2587 25.3014C31.0059 24.9302 30.6825 24.6125 30.307 24.3663C29.9315 24.1201 29.5111 23.9503 29.0699 23.8666C28.6288 23.7829 28.1754 23.7869 27.7358 23.8783L27.092 24.0123C26.2041 24.1971 25.426 24.7269 24.9288 25.4854C24.4316 26.2438 24.2561 27.1687 24.4409 28.0566Z" fill="#2F2E41"/>
<path d="M37.2363 3.76813L37.2281 3.7839C35.5968 3.03234 33.7389 2.93713 32.0393 3.51798C30.3397 4.09883 28.9287 5.31122 28.0985 6.90399C27.2684 8.49676 27.0828 10.3478 27.5802 12.0737C28.0775 13.7996 29.2198 15.268 30.7702 16.1747L30.762 16.1905L43.1843 22.6648L49.6586 10.2424C50.0848 9.42669 50.346 8.53494 50.4274 7.61817C50.5087 6.70141 50.4085 5.7776 50.1326 4.89956C49.8567 4.02152 49.4105 3.20646 48.8194 2.50099C48.2283 1.79552 47.504 1.21345 46.6878 0.78808C45.8716 0.362704 44.9796 0.102356 44.0628 0.0219187C43.1459 -0.0585189 42.2222 0.0425306 41.3444 0.319291C40.4667 0.596052 39.6521 1.0431 38.9472 1.63487C38.2423 2.22664 37.6609 2.95154 37.2363 3.76813Z" fill="#6C63FF"/>
<path d="M48.3047 75.0514L48.3026 75.0554C47.8903 74.8655 47.4207 74.8414 46.9911 74.9882C46.5615 75.135 46.2049 75.4414 45.9951 75.844C45.7853 76.2466 45.7383 76.7144 45.8641 77.1506C45.9898 77.5869 46.2785 77.958 46.6704 78.1872L46.6683 78.1912L49.808 79.8275L51.4444 76.6878C51.5521 76.4816 51.6182 76.2562 51.6387 76.0245C51.6593 75.7928 51.634 75.5593 51.5643 75.3373C51.4946 75.1154 51.3818 74.9094 51.2324 74.731C51.083 74.5527 50.8999 74.4056 50.6936 74.2981C50.4873 74.1906 50.2618 74.1248 50.0301 74.1044C49.7983 74.0841 49.5648 74.1096 49.343 74.1796C49.1211 74.2496 48.9152 74.3626 48.737 74.5122C48.5589 74.6618 48.412 74.845 48.3047 75.0514Z" fill="#FF6584"/>
<path d="M6.6539 35.2414V35.2591C4.85993 35.3466 3.16836 36.1209 1.92964 37.4215C0.690927 38.7221 -8.34007e-07 40.4494 0 42.2455C8.34009e-07 44.0416 0.690932 45.7689 1.92965 47.0695C3.16837 48.3701 4.85993 49.1443 6.65391 49.2318V49.2496L20.6622 49.2496L20.6622 35.2413C20.663 34.321 20.4825 33.4095 20.1309 32.5589C19.7793 31.7084 19.2636 30.9354 18.6131 30.2843C17.9626 29.6332 17.1902 29.1167 16.34 28.7643C15.4897 28.4119 14.5784 28.2305 13.658 28.2305C12.7377 28.2305 11.8263 28.4119 10.9761 28.7643C10.1259 29.1167 9.35346 29.6332 8.70298 30.2843C8.0525 30.9354 7.53671 31.7084 7.18512 32.5589C6.83353 33.4095 6.65301 34.321 6.6539 35.2413V35.2414Z" fill="#6C63FF"/>
<path d="M71.9385 79.9997H1.94321C1.90906 79.9997 1.87631 79.9861 1.85217 79.962C1.82802 79.9378 1.81445 79.9051 1.81445 79.8709C1.81445 79.8368 1.82802 79.804 1.85217 79.7799C1.87631 79.7558 1.90906 79.7422 1.94321 79.7422H71.9385C71.9726 79.7422 72.0054 79.7558 72.0295 79.7799C72.0537 79.804 72.0672 79.8368 72.0672 79.8709C72.0672 79.9051 72.0537 79.9378 72.0295 79.962C72.0054 79.9861 71.9726 79.9997 71.9385 79.9997Z" fill="#CACACA"/>
<path d="M60.7934 48.4747C62.2242 48.4657 63.6076 47.9607 64.7077 47.0458C65.8276 46.104 66.5647 44.7853 66.7802 43.338C66.9067 42.5198 66.8659 41.6844 66.6603 40.8823C66.6477 40.8422 66.6201 40.8085 66.5831 40.7884C66.5462 40.7682 66.5028 40.7632 66.4623 40.7744C66.4217 40.7856 66.3871 40.8121 66.3657 40.8483C66.3443 40.8845 66.3377 40.9276 66.3475 40.9686C66.6942 42.3304 66.5378 43.7715 65.907 45.0272C65.4223 45.9661 64.6891 46.7539 63.7874 47.3046C62.8857 47.8553 61.85 48.1479 60.7934 48.1503C60.7514 48.1517 60.7115 48.1695 60.6823 48.1997C60.6531 48.23 60.6367 48.2704 60.6367 48.3125C60.6367 48.3545 60.6531 48.395 60.6823 48.4252C60.7115 48.4555 60.7514 48.4732 60.7934 48.4747V48.4747Z" fill="#F0F0F0"/>
<path d="M35.7444 6.33912C34.8214 5.46294 33.364 5.46523 32.2981 6.07518C31.1018 6.75966 30.5595 8.17407 30.5869 9.50209C30.6178 10.9967 31.3486 12.3501 32.2922 13.471C33.2978 14.6356 34.4682 15.6472 35.7661 16.4738C37.0604 17.3167 38.461 17.9842 39.9309 18.4585C40.1119 18.5169 40.2937 18.5722 40.4765 18.6244C40.5175 18.6342 40.5606 18.6277 40.5968 18.6062C40.633 18.5848 40.6595 18.5502 40.6707 18.5096C40.6819 18.4691 40.6769 18.4257 40.6568 18.3888C40.6366 18.3519 40.6029 18.3242 40.5628 18.3116C37.7398 17.5049 35.1733 15.9821 33.1124 13.8911C32.1313 12.8862 31.2594 11.6785 30.9912 10.2729C30.7544 9.03153 31.0161 7.59019 31.9783 6.70597C32.9136 5.84641 34.5505 5.65288 35.515 6.56851C35.6664 6.71222 35.8962 6.48321 35.7444 6.33912V6.33912Z" fill="white"/>
<path d="M6.41405 38.6536C5.16728 38.4985 3.99639 39.3754 3.5108 40.4831C2.96624 41.7252 3.33339 43.157 4.12328 44.2068C4.9932 45.3629 6.31088 46.0368 7.68827 46.3946C9.1668 46.7786 10.7363 46.8823 12.2583 46.8113C14.0575 46.728 15.833 46.3671 17.522 45.7414C17.716 45.6694 17.632 45.3557 17.4357 45.4286C14.6241 46.4725 11.4942 46.8019 8.53757 46.2507C7.21598 46.0044 5.87002 45.5343 4.88518 44.5835C3.99283 43.7219 3.36154 42.4171 3.6301 41.1571C3.89696 39.905 5.0874 38.813 6.41405 38.978C6.62071 39.0037 6.61884 38.679 6.41405 38.6536Z" fill="white"/>
<path d="M27.1563 22.7633C27.4579 21.5578 26.8738 20.2648 25.9694 19.4127C25.0651 18.5605 23.885 18.0707 22.717 17.6467C21.7855 17.3085 20.6945 17.0144 19.8515 17.5352C19.1741 17.9537 18.8803 18.7666 18.4931 19.4624C17.7551 20.7882 16.5646 21.804 15.1392 22.3242C13.7138 22.8443 12.1489 22.834 10.7305 22.295C11.2304 23.7464 12.9525 24.4563 14.4843 24.3577C16.0162 24.2591 17.431 23.5536 18.858 22.9879C20.285 22.4222 21.8724 21.9852 23.339 22.4382C23.958 22.6294 24.521 22.9707 25.1339 23.1807C25.7468 23.3907 26.4641 23.4532 27.0103 23.1048" fill="#2F2E41"/>
<path d="M48.6114 66.9137L47.5672 65.0757C47.5447 65.0401 47.5093 65.0146 47.4684 65.0046C47.4275 64.9946 47.3843 65.0009 47.348 65.0222C47.3116 65.0434 47.285 65.078 47.2736 65.1185C47.2622 65.159 47.2671 65.2024 47.287 65.2394L48.3313 67.0774C48.3537 67.113 48.3891 67.1385 48.43 67.1484C48.4709 67.1584 48.5141 67.1521 48.5504 67.1309C48.5868 67.1096 48.6134 67.0751 48.6248 67.0346C48.6362 66.9941 48.6313 66.9507 48.6114 66.9137Z" fill="#F0F0F0"/>
</g>
<defs>
<clipPath id="clip0_2157_33133">
<rect width="74.1283" height="80" fill="white"/>
</clipPath>
</defs>
</svg>
