<svg width="180" height="130" viewBox="0 0 180 130" fill="none" xmlns="http://www.w3.org/2000/svg">
<g clip-path="url(#clip0_621_6464)">
<path opacity="0.1" d="M167.159 62.126C167.258 60.9888 167.311 59.8332 167.311 58.6658C167.311 40.386 154.908 25.5662 139.609 25.5662C134.738 25.5662 130.146 27.0779 126.172 29.7234C115.343 21.325 101.205 16.2507 85.7389 16.2507C60.5724 16.2507 38.9247 29.6999 29.3204 48.9876C28.7879 48.9506 28.2504 48.9305 27.7079 48.9305C12.401 48.9305 0 63.7485 0 82.0284C0 88.7471 1.67967 95.0005 4.55863 100.221C4.55863 116.667 17.7357 130.003 33.9899 130.003H54.4819L54.5726 129.847C55.7769 127.892 58.6609 127.403 60.6698 128.513C61.2006 128.806 61.6944 129.185 62.2873 129.32C64.6607 129.824 66.2547 126.006 68.6566 126.377C69.8626 126.563 70.8033 127.81 72.016 127.682C72.8205 127.596 73.4303 126.923 74.1861 126.637C75.3972 126.177 76.625 126.815 77.4732 127.852C77.9654 126.436 77.962 124.758 78.7582 123.459C79.9625 121.504 82.8465 121.015 84.8554 122.126C85.3862 122.418 85.88 122.797 86.4729 122.932C88.8463 123.436 90.4403 119.618 92.8423 119.989C94.0483 120.175 94.9889 121.422 96.2016 121.294C97.0062 121.208 97.6159 120.535 98.3717 120.249C100.256 119.532 102.186 121.479 102.65 123.441C102.829 124.305 102.925 125.185 102.934 126.068C104.56 125.28 105.934 123.065 107.79 123.352C108.996 123.538 109.936 124.785 111.149 124.657C111.954 124.571 112.563 123.898 113.319 123.612C115.204 122.895 117.134 124.842 117.597 126.803C117.844 127.845 117.861 128.927 117.903 129.995H151.858C164.623 129.995 174.967 119.527 174.967 106.614C177.557 101.575 179.053 95.6489 179.053 89.3031C179.053 78.0493 174.35 68.1056 167.159 62.126Z" fill="#1484CD"/>
<path d="M104.644 44.6792C112.715 44.6792 119.258 38.1367 119.258 30.066C119.258 21.9954 112.715 15.4529 104.644 15.4529C96.5738 15.4529 90.0312 21.9954 90.0312 30.066C90.0312 38.1367 96.5738 44.6792 104.644 44.6792Z" fill="#1484CD"/>
<path d="M99.9395 30.617L104.621 25.9358L109.349 30.617H106.136V34.1964H103.153V30.6406L99.9395 30.617Z" fill="white"/>
<path d="M123.879 67.3884C123.681 66.3695 123.171 65.4374 122.42 64.7216C121.668 64.0059 120.712 63.5419 119.685 63.3941C118.657 63.2464 117.61 63.4222 116.687 63.8972C115.764 64.3722 115.012 65.1227 114.535 66.0446C113.518 66.1554 112.582 66.6519 111.92 67.4318C111.257 68.2117 110.919 69.2158 110.975 70.2374C111.03 71.2591 111.475 72.2206 112.218 72.9242C112.961 73.6278 113.945 74.0198 114.968 74.0198H123.646C124.528 74.0171 125.375 73.6658 126 73.0423C126.625 72.4187 126.978 71.5735 126.983 70.6906C126.986 69.8476 126.666 69.0355 126.089 68.4212C125.511 67.807 124.721 67.4374 123.879 67.3884ZM120.041 69.357V71.8866H117.913V69.3502H115.637L118.974 66.0127L122.31 69.3502L120.041 69.357Z" fill="white"/>
<path d="M149.41 108.876C149.213 107.858 148.703 106.925 147.951 106.21C147.199 105.494 146.243 105.03 145.216 104.882C144.189 104.734 143.141 104.91 142.218 105.385C141.295 105.86 140.543 106.611 140.066 107.533C139.049 107.643 138.113 108.14 137.451 108.92C136.789 109.7 136.45 110.704 136.506 111.725C136.561 112.747 137.006 113.709 137.749 114.412C138.492 115.116 139.476 115.508 140.5 115.508H149.177C150.06 115.505 150.906 115.154 151.531 114.53C152.156 113.907 152.509 113.062 152.514 112.179C152.517 111.336 152.197 110.524 151.62 109.909C151.043 109.295 150.252 108.925 149.41 108.876ZM145.572 110.845V113.375H143.444V110.838H141.168L144.506 107.501L147.841 110.838L145.572 110.845Z" fill="white"/>
<path d="M55.3363 78.9413C55.0278 77.3677 54.2372 75.929 53.0744 74.8249C51.9115 73.7207 50.4338 73.0057 48.8464 72.779C47.2589 72.5523 45.6402 72.8252 44.2147 73.5598C42.7893 74.2944 41.6277 75.4543 40.8911 76.8786C39.32 77.0512 37.8746 77.8191 36.8522 79.0245C35.8297 80.2298 35.3079 81.7811 35.3939 83.3593C35.48 84.9376 36.1673 86.4229 37.3147 87.51C38.4621 88.5971 39.9824 89.2033 41.563 89.2041H54.9752C56.342 89.1996 57.6515 88.6545 58.6177 87.6876C59.5839 86.7208 60.1282 85.4109 60.1318 84.0441C60.1362 82.7418 59.6416 81.4872 58.7497 80.5382C57.8579 79.5891 56.6364 79.0177 55.3363 78.9413ZM49.4054 81.9815V85.9018H46.1048V81.9815H42.5977L47.7559 76.8249L52.9092 81.9815H49.4054Z" fill="white"/>
<path d="M113.043 92.3786V88.297L114.924 90.1782L115.394 89.6911L112.707 87.0037L110.02 89.6911L110.49 90.1614L112.371 88.297V92.3786H113.043Z" fill="white"/>
<path d="M19.1484 97.9216V93.84L21.0296 95.7212L21.5 95.2341L18.8125 92.5466L16.125 95.2341L16.5953 95.7044L18.4765 93.84V97.9216H19.1484Z" fill="white"/>
<path d="M112.875 53.9141V50.8554L114.286 52.2663L114.639 51.9018L112.623 49.8862L110.607 51.9018L110.96 52.2546L112.371 50.8554V53.9141H112.875Z" fill="white"/>
<path d="M76.0898 31.7425V28.6838L77.5008 30.0947L77.8535 29.7302L75.8379 27.7146L73.8223 29.7302L74.175 30.0829L75.5859 28.6838V31.7425H76.0898Z" fill="white"/>
<path d="M62.3164 61.9766V58.9179L63.7273 60.3288L64.08 59.9643L62.0644 57.9487L60.0488 59.9643L60.4016 60.3171L61.8125 58.9179V61.9766H62.3164Z" fill="white"/>
<path d="M148.65 76.0857V73.027L150.061 74.438L150.414 74.0735L148.398 72.0579L146.383 74.0735L146.736 74.4262L148.146 73.027V76.0857H148.65Z" fill="white"/>
<path d="M59.2929 103.129V100.07L60.7039 101.481L61.0566 101.116L59.041 99.1008L57.0254 101.116L57.3781 101.469L58.789 100.07V103.129H59.2929Z" fill="white"/>
<path d="M132.525 50.2221C133.082 50.2221 133.533 49.7709 133.533 49.2143C133.533 48.6578 133.082 48.2065 132.525 48.2065C131.969 48.2065 131.518 48.6578 131.518 49.2143C131.518 49.7709 131.969 50.2221 132.525 50.2221Z" fill="white"/>
<path d="M37.625 47.5347C38.1816 47.5347 38.6328 47.0834 38.6328 46.5268C38.6328 45.9703 38.1816 45.519 37.625 45.519C37.0684 45.519 36.6172 45.9703 36.6172 46.5268C36.6172 47.0834 37.0684 47.5347 37.625 47.5347Z" fill="white"/>
<path d="M67.3555 73.0659C67.9121 73.0659 68.3633 72.6147 68.3633 72.0581C68.3633 71.5015 67.9121 71.0503 67.3555 71.0503C66.7989 71.0503 66.3477 71.5015 66.3477 72.0581C66.3477 72.6147 66.7989 73.0659 67.3555 73.0659Z" fill="white"/>
<path d="M155.369 89.6946C155.647 89.6946 155.873 89.469 155.873 89.1907C155.873 88.9124 155.647 88.6868 155.369 88.6868C155.091 88.6868 154.865 88.9124 154.865 89.1907C154.865 89.469 155.091 89.6946 155.369 89.6946Z" fill="white"/>
<path d="M117.576 103.636C117.854 103.636 118.08 103.41 118.08 103.132C118.08 102.854 117.854 102.628 117.576 102.628C117.298 102.628 117.072 102.854 117.072 103.132C117.072 103.41 117.298 103.636 117.576 103.636Z" fill="white"/>
<path d="M52.9102 115.394C53.1885 115.394 53.4141 115.168 53.4141 114.89C53.4141 114.611 53.1885 114.386 52.9102 114.386C52.6319 114.386 52.4062 114.611 52.4062 114.89C52.4062 115.168 52.6319 115.394 52.9102 115.394Z" fill="white"/>
<path d="M16.125 74.5773C16.4033 74.5773 16.6289 74.3517 16.6289 74.0735C16.6289 73.7952 16.4033 73.5696 16.125 73.5696C15.8467 73.5696 15.6211 73.7952 15.6211 74.0735C15.6211 74.3517 15.8467 74.5773 16.125 74.5773Z" fill="white"/>
<path d="M20.9961 63.8276C21.2744 63.8276 21.5 63.602 21.5 63.3237C21.5 63.0454 21.2744 62.8198 20.9961 62.8198C20.7178 62.8198 20.4922 63.0454 20.4922 63.3237C20.4922 63.602 20.7178 63.8276 20.9961 63.8276Z" fill="white"/>
<path d="M129.334 120.265C129.612 120.265 129.838 120.039 129.838 119.761C129.838 119.482 129.612 119.257 129.334 119.257C129.056 119.257 128.83 119.482 128.83 119.761C128.83 120.039 129.056 120.265 129.334 120.265Z" fill="white"/>
<path d="M36.1133 102.796C36.3916 102.796 36.6172 102.57 36.6172 102.292C36.6172 102.014 36.3916 101.788 36.1133 101.788C35.835 101.788 35.6094 102.014 35.6094 102.292C35.6094 102.57 35.835 102.796 36.1133 102.796Z" fill="white"/>
<path d="M47.7031 56.605C47.9814 56.605 48.207 56.3794 48.207 56.1011C48.207 55.8228 47.9814 55.5972 47.7031 55.5972C47.4248 55.5972 47.1992 55.8228 47.1992 56.1011C47.1992 56.3794 47.4248 56.605 47.7031 56.605Z" fill="white"/>
<path d="M64.9199 38.2126H62.3164V35.6091H61.9804V38.2126H59.377V38.5485H61.9804V41.152H62.3164V38.5485H64.9199V38.2126Z" fill="white"/>
<path d="M128.326 86.3167H126.749V84.7395H126.544V86.3167H124.967V86.5217H126.544V88.0989H126.749V86.5217H128.326V86.3167Z" fill="white"/>
<path d="M118.752 115.711H117.175V114.134H116.97V115.711H115.393V115.916H116.97V117.493H117.175V115.916H118.752V115.711Z" fill="white"/>
<path d="M40.3125 112.016H38.7353V110.438H38.5303V112.016H36.9531V112.221H38.5303V113.798H38.7353V112.221H40.3125V112.016Z" fill="white"/>
<path d="M29.2265 82.4534H27.6493V80.8762H27.4444V82.4534H25.8672V82.6584H27.4444V84.2356H27.6493V82.6584H29.2265V82.4534Z" fill="white"/>
<path d="M76.1661 112.484L76.1779 111.539L75.6101 111.532L75.5984 112.478L74.6191 115.306L77.0782 115.335L76.1661 112.484Z" fill="#3F3D56"/>
<path d="M78.6342 112.538L78.6459 111.569L78.0631 111.561L78.0513 112.531L77.0469 115.432L79.5697 115.461L78.6342 112.538Z" fill="#3F3D56"/>
<path d="M81.086 112.543L81.0978 111.598L80.5301 111.591L80.5183 112.536L79.5391 115.365L81.9998 115.394L81.086 112.543Z" fill="#3F3D56"/>
<path d="M98.6244 112.777L98.6362 111.806L98.0533 111.799L98.0416 112.77L97.0371 115.669L99.56 115.699L98.6244 112.777Z" fill="#3F3D56"/>
<path d="M101.148 112.807L101.16 111.836L100.577 111.829L100.565 112.8L99.5605 115.699L102.083 115.73L101.148 112.807Z" fill="#3F3D56"/>
<path d="M103.671 112.837L103.683 111.866L103.1 111.86L103.088 112.83L102.084 115.73L104.607 115.76L103.671 112.837Z" fill="#3F3D56"/>
<path d="M87.1732 112.641L87.185 111.67L86.6021 111.663L86.5904 112.634L85.5859 115.533L88.1088 115.563L87.1732 112.641Z" fill="#3F3D56"/>
<path d="M89.6967 112.671L89.7084 111.7L89.1273 111.693L89.1155 112.664L88.1094 115.563L90.6323 115.594L89.6967 112.671Z" fill="#3F3D56"/>
<path d="M92.2182 112.701L92.2299 111.73L91.6487 111.723L91.637 112.694L90.6309 115.593L93.1554 115.624L92.2182 112.701Z" fill="#3F3D56"/>
<path d="M85.4553 44.7766C85.4201 41.4341 81.4829 35.5082 79.3581 35.483C77.2333 35.4578 73.3482 41.2896 73.234 44.6305H73.1332L72.332 111.786L84.6575 111.932L85.4587 44.7783L85.4553 44.7766Z" fill="#3F3D56"/>
<path d="M107.969 45.0454C107.934 41.7029 103.997 35.777 101.872 35.7518C99.7473 35.7266 95.8622 41.5584 95.7496 44.8993H95.6489L94.8477 112.054L107.173 112.2L107.974 45.0471L107.969 45.0454Z" fill="#3F3D56"/>
<path d="M96.8943 13.592C96.8758 8.69236 92.9706 0.0252505 90.8475 5.54098e-05C88.7244 -0.0251397 84.8007 8.54791 84.6714 13.4374H84.5723L83.3965 111.907L95.7202 112.054L96.896 13.5836L96.8943 13.592Z" fill="#2F2E41"/>
<path d="M85.5176 66.4193L90.2005 61.7363L94.9271 66.4193H91.7156V69.9986H88.7308V66.4411L85.5176 66.4193Z" fill="#1484CD"/>
<g opacity="0.1">
<path opacity="0.1" d="M96.5605 46.1777C97.8354 43.203 100.325 40.1006 101.873 40.1191C103.889 40.1426 107.52 45.4588 107.932 48.8534L107.976 45.2068C107.94 41.8643 104.003 35.9384 101.878 35.9132C100.35 35.8947 97.9076 38.9164 96.6177 41.8559L96.5605 46.1777Z" fill="black"/>
<path opacity="0.1" d="M73.1355 48.9962H73.2362C73.3488 45.6553 77.2355 39.8235 79.3587 39.8487C80.7461 39.8655 82.9044 42.3968 84.2465 45.0826L84.5724 17.8114H84.6715C84.8025 12.9134 88.7245 4.34039 90.8476 4.37398C92.8531 4.3975 96.451 12.1358 96.8575 17.1227L96.8961 13.7634C96.8776 8.86375 92.9724 0.196637 90.8493 0.171442C88.7262 0.146247 84.8025 8.7193 84.6731 13.6172H84.574L84.2482 40.8884C82.9044 38.2009 80.7477 35.6713 79.3603 35.6545C77.2372 35.6293 73.3505 41.4612 73.2379 44.802H73.1371L72.3359 111.957H72.3863L73.1355 48.9962Z" fill="black"/>
</g>
<path d="M90.8473 4.26383L90.8456 4.26381C90.2027 4.25618 89.6755 4.77111 89.6678 5.41393L89.6356 8.13313C89.6279 8.77595 90.1428 9.30325 90.7857 9.31088L90.7873 9.3109C91.4302 9.31853 91.9575 8.8036 91.9651 8.16078L91.9974 5.44158C92.005 4.79876 91.4901 4.27146 90.8473 4.26383Z" fill="#ECECF3"/>
</g>
<defs>
<clipPath id="clip0_621_6464">
<rect width="179.053" height="130" fill="white"/>
</clipPath>
</defs>
</svg>
