<svg width="105" height="96" viewBox="0 0 105 96" fill="none" xmlns="http://www.w3.org/2000/svg">
<g clip-path="url(#clip0_785_3969)">
<path d="M86.1076 76.0396C86.1058 76.2686 86.1003 76.4957 86.0912 76.7248C82.834 81.0858 78.8719 84.8671 74.3697 87.9113C73.85 88.2649 73.3236 88.6057 72.7905 88.9336C68.8004 91.4048 64.4656 93.264 59.9293 94.4499C59.6904 94.5122 59.4515 94.5727 59.2126 94.6313C59.0412 94.6735 58.868 94.7156 58.6948 94.7522C58.589 94.7431 58.485 94.7339 58.3811 94.7248C58.3757 94.7229 58.3684 94.7229 58.3629 94.7211C58.3209 94.7174 58.279 94.7138 58.2389 94.7119C58.0602 94.6954 57.8814 94.6771 57.7028 94.6606L57.7447 94.7412L57.8504 94.9428H57.8487C57.8104 94.8768 57.7721 94.809 57.7356 94.7412C57.721 94.7174 57.7046 94.6918 57.6919 94.6661C57.679 94.6441 57.6663 94.6203 57.6535 94.5983C56.0269 91.755 54.424 88.8072 54.0137 85.5626C53.5853 82.166 54.7887 78.3223 57.7629 76.6533C58.1531 76.4359 58.5659 76.262 58.9938 76.1348C59.1725 76.0817 59.353 76.0377 59.5354 75.9974C60.6508 75.7488 61.812 75.803 62.8996 76.1547C63.9872 76.5063 64.962 77.1426 65.7237 77.9982C66.4854 78.8538 67.0065 79.8977 67.2336 81.0227C67.4606 82.1477 67.3853 83.3132 67.0154 84.3993C69.5374 81.8014 69.0669 77.5877 68.1971 74.0665C67.3254 70.5434 66.2714 66.6246 68.0439 63.4625C69.0286 61.7 70.761 60.6081 72.7066 60.1684C72.7649 60.1556 72.8251 60.1428 72.8853 60.1318C75.2023 59.66 77.6112 60.084 79.6306 61.319C83.3486 63.6732 85.2579 68.1361 85.8779 72.5074C86.0432 73.6772 86.12 74.858 86.1076 76.0396Z" fill="#5ECC63"/>
<path d="M60.8826 78.24C62.2545 81.0428 62.6924 84.2146 62.1316 87.2867C61.6371 89.9135 60.4479 92.3582 58.6888 94.364C58.5886 94.4794 58.4864 94.5911 58.3824 94.7011C58.5503 94.6901 58.7198 94.6754 58.8876 94.6608C58.9952 94.6516 59.1046 94.6425 59.2122 94.6315C59.0408 94.6736 58.8675 94.7157 58.6943 94.7524C58.5886 94.7432 58.4846 94.7341 58.3807 94.7249C58.3752 94.7231 58.3679 94.7231 58.3624 94.7212C58.3205 94.7176 58.2785 94.7139 58.2385 94.7121C58.0598 94.6956 57.881 94.6773 57.7024 94.6608L57.7442 94.7414L57.85 94.9429H57.8482C57.8099 94.877 57.7716 94.8092 57.7351 94.7414C57.7205 94.7176 57.7041 94.6919 57.6914 94.6663C57.7242 94.6351 57.7552 94.6021 57.7862 94.5692C60.1692 92.161 61.6043 88.9677 61.8261 85.5792C62.048 82.1907 61.0418 78.8361 58.9933 76.135C59.172 76.0818 59.3526 76.0379 59.535 75.9976C60.0482 76.7042 60.4991 77.4546 60.8826 78.24Z" fill="white"/>
<path d="M77.2938 80.2719C77.1477 81.8243 76.7767 83.347 76.1924 84.7916C75.8752 85.5522 75.4881 86.2815 75.0362 86.9699C74.8284 87.2924 74.6041 87.6075 74.3689 87.9116C73.8492 88.2652 73.3228 88.606 72.7897 88.9339C73.1328 88.5876 73.4573 88.2231 73.7616 87.842C73.9313 87.6368 74.0917 87.4261 74.2466 87.2118C75.9808 84.8099 76.7449 81.9189 76.8762 78.9822C77.0148 75.8365 76.6081 72.6359 75.8933 69.5782C75.1648 66.4421 74.0563 63.4076 72.5927 60.5425C72.5601 60.4775 72.5536 60.4024 72.5747 60.3328C72.5957 60.2632 72.6427 60.2044 72.7058 60.1687C72.7584 60.1336 72.8225 60.1204 72.8845 60.1321C72.915 60.1398 72.9433 60.1546 72.967 60.1753C72.9908 60.196 73.0093 60.222 73.0213 60.2512C73.2019 60.6048 73.3805 60.9583 73.5501 61.3174C74.9698 64.3 76.0148 67.4485 76.661 70.6902C77.2883 73.8176 77.6239 77.0878 77.2938 80.2719Z" fill="white"/>
<path d="M33.9317 93.957C33.9974 93.8416 34.063 93.7262 34.1269 93.6107C35.3431 91.4636 36.4865 89.2358 36.7947 86.7991C37.1393 84.0657 36.171 80.9713 33.7767 79.6284C33.4626 79.4525 33.1299 79.3124 32.7848 79.2107C32.6425 79.1686 32.4966 79.132 32.3489 79.099C31.451 78.8991 30.5164 78.9431 29.641 79.2263C28.7656 79.5095 27.9811 80.0218 27.368 80.7105C26.7549 81.3992 26.3354 82.2395 26.1526 83.145C25.9697 84.0506 26.0302 84.9887 26.3277 85.8629C24.2981 83.7726 24.6774 80.3796 25.3776 77.5454C26.0779 74.7094 26.9276 71.5545 25.4998 69.0098C24.7066 67.59 23.3134 66.7106 21.747 66.357C21.6996 66.3478 21.6504 66.3368 21.603 66.3277C19.7375 65.9484 17.7984 66.29 16.1725 67.284C13.1802 69.1784 11.6429 72.771 11.1433 76.2904C11.0649 76.8455 11.0102 77.408 10.9828 77.9723C10.9719 78.1701 10.9646 78.3662 10.9609 78.564C11.9219 79.731 12.9419 80.8565 14.0208 81.9405C15.5783 83.5058 17.2397 84.9632 18.9935 86.3026C19.2342 86.4858 19.4749 86.6654 19.7193 86.8431C23.6961 89.7622 28.1026 92.0388 32.7793 93.5906C33.0364 93.6748 33.2972 93.7591 33.5561 93.8397L33.9317 93.957Z" fill="#60A863"/>
<path d="M33.5566 93.8399C33.2977 93.7593 33.0369 93.675 32.7798 93.5907C32.6303 93.4093 32.488 93.2243 32.3512 93.0338C31.3046 91.5946 30.5901 89.9392 30.2597 88.188C29.8083 85.7151 30.1605 83.1618 31.2644 80.9055C31.5735 80.273 31.9365 79.6687 32.3495 79.0991C32.4972 79.1321 32.643 79.1687 32.7853 79.2109C31.2453 81.2428 30.4346 83.7383 30.4849 86.2918C30.5353 88.8452 31.4436 91.3065 33.0625 93.2756C33.2212 93.4698 33.3852 93.6567 33.5566 93.8399Z" fill="white"/>
<path d="M19.1812 73.933C18.5749 76.4083 18.3087 78.9552 18.3898 81.5031C18.4416 83.079 18.7726 84.6331 19.3672 86.0924C19.4748 86.347 19.5915 86.5962 19.7192 86.8435C19.4748 86.6658 19.2341 86.4863 18.9933 86.3031C18.9752 86.2609 18.9569 86.2206 18.9405 86.1785C18.8603 85.9843 18.7855 85.7882 18.7162 85.5904C18.3752 84.6043 18.1523 83.5809 18.0525 82.5418C17.788 79.9769 18.0579 77.3461 18.563 74.827C19.0825 72.2175 19.9236 69.6832 21.0667 67.2826C21.2035 66.9931 21.3475 66.7092 21.4935 66.4252C21.5028 66.4015 21.5176 66.3804 21.5366 66.3635C21.5556 66.3466 21.5783 66.3345 21.6028 66.3281C21.6528 66.3196 21.7041 66.33 21.7469 66.3574C21.7977 66.3865 21.8355 66.4341 21.8524 66.4903C21.8694 66.5465 21.8642 66.6072 21.838 66.6597C20.6592 68.9656 19.7669 71.4084 19.1812 73.933Z" fill="white"/>
<path d="M32.3975 73.2593C32.1824 73.3391 31.9499 73.3593 31.7243 73.3178C31.4988 73.2762 31.2886 73.1745 31.1157 73.0232L29.0873 71.246C28.8325 71.0222 28.6764 70.706 28.6534 70.3668C28.6303 70.0276 28.7421 69.693 28.9643 69.4365L43.7082 52.4517C43.9309 52.1957 44.2456 52.0389 44.5832 52.0157C44.9209 51.9925 45.2539 52.1048 45.5092 52.328L47.5375 54.1054C47.7923 54.3291 47.9484 54.6453 47.9715 54.9845C47.9945 55.3237 47.8827 55.6583 47.6606 55.9147L32.9167 72.8996C32.7765 73.0615 32.5979 73.1852 32.3975 73.2593Z" fill="#CFBF8A"/>
<path d="M52.6622 54.5695C52.5295 54.5694 52.3976 54.5486 52.2713 54.5078C52.1114 54.4571 51.9631 54.3749 51.8351 54.2662C51.707 54.1575 51.6017 54.0244 51.5252 53.8745L50.2919 51.4711C50.1371 51.1688 50.108 50.8171 50.2111 50.4932C50.3141 50.1693 50.5408 49.8998 50.8414 49.7436L70.7792 39.416C71.0802 39.2605 71.4303 39.2314 71.7526 39.3349C72.075 39.4384 72.3433 39.6662 72.4987 39.9682L73.732 42.3716C73.8868 42.6739 73.9159 43.0256 73.8128 43.3495C73.7098 43.6734 73.4831 43.9429 73.1824 44.099L53.2446 54.4267C53.0647 54.5204 52.8649 54.5694 52.6622 54.5695Z" fill="#CFBF8A"/>
<path d="M52.3032 55.1505C52.066 55.1505 51.8335 55.0842 51.6315 54.9592C51.4296 54.8341 51.2663 54.6552 51.1597 54.4423L49.9523 52.0257C49.8158 51.7532 49.7808 51.4407 49.8534 51.1445C49.8614 51.1118 49.8706 51.0791 49.8814 51.0466C49.9058 50.9728 49.9323 50.8577 49.963 50.7244C50.0608 50.2993 50.1826 49.7703 50.4308 49.6451L59.1914 44.3102C59.4929 44.1558 59.843 44.1281 60.1649 44.2331C60.4867 44.3381 60.7538 44.5672 60.9075 44.8701L60.9112 44.8774L63.121 49.4538C63.2722 49.7577 63.2972 50.1095 63.1907 50.432C63.0841 50.7545 62.8546 51.0214 62.5524 51.1742L52.8658 55.0164C52.6912 55.1046 52.4986 55.1506 52.3032 55.1505Z" fill="#2F2E41"/>
<path d="M48.6655 43.2903C54.0555 43.2903 58.4248 38.9004 58.4248 33.4852C58.4248 28.07 54.0555 23.6802 48.6655 23.6802C43.2756 23.6802 38.9062 28.07 38.9062 33.4852C38.9062 38.9004 43.2756 43.2903 48.6655 43.2903Z" fill="#CFBF8A"/>
<path d="M46.7628 95.747H44.0714C43.733 95.7466 43.4085 95.6113 43.1692 95.3709C42.9299 95.1305 42.7953 94.8045 42.7949 94.4645V71.5613C42.7953 71.2212 42.9299 70.8953 43.1692 70.6548C43.4085 70.4144 43.733 70.2792 44.0714 70.2788H46.7628C47.1012 70.2792 47.4256 70.4144 47.6649 70.6548C47.9042 70.8953 48.0388 71.2212 48.0392 71.5613V94.4645C48.0388 94.8045 47.9042 95.1305 47.6649 95.3709C47.4256 95.6113 47.1012 95.7466 46.7628 95.747Z" fill="#CFBF8A"/>
<path d="M58.3598 85.0871C58.1564 85.0875 57.956 85.039 57.775 84.9458C57.5941 84.8525 57.438 84.7172 57.3197 84.5511L44.2728 66.2183C44.0762 65.9415 43.997 65.5977 44.0524 65.2622C44.1079 64.9268 44.2936 64.6272 44.5687 64.4292L46.7581 62.8564C47.0336 62.6589 47.3758 62.5793 47.7096 62.635C48.0435 62.6908 48.3417 62.8773 48.5388 63.1537L61.5858 81.4864C61.7823 81.7632 61.8615 82.107 61.806 82.4424C61.7506 82.7778 61.5649 83.0774 61.2898 83.2755L59.1005 84.8483C58.8845 85.0038 58.6254 85.0873 58.3598 85.0871Z" fill="#CFBF8A"/>
<path d="M54.899 95.4066C54.6307 95.402 54.367 95.3357 54.1281 95.2129L51.7187 94.0077C51.0887 93.6925 50.7415 93.1022 50.9449 92.692L57.1545 80.1608C57.3578 79.7506 58.0357 79.6731 58.6659 79.9881L61.0752 81.1933C61.356 81.3271 61.5949 81.5358 61.7659 81.7965C61.8401 81.8978 61.8868 82.0168 61.9014 82.1417C61.916 82.2666 61.898 82.3932 61.8492 82.509L55.6396 95.0402C55.5205 95.2805 55.2387 95.4066 54.899 95.4066Z" fill="#CFBF8A"/>
<path d="M43.1857 62.158C42.9584 62.2415 42.7121 62.2586 42.4755 62.2071C42.2389 62.1557 42.0216 62.0379 41.849 61.8675L38.1976 58.3476C38.0781 58.2295 37.983 58.0889 37.9176 57.9338C37.8522 57.7788 37.8178 57.6123 37.8164 57.4439C37.8151 57.2755 37.8467 57.1085 37.9096 56.9524C37.9725 56.7963 38.0654 56.6542 38.1829 56.5342L38.1839 56.5331L45.9445 49.7923C46.134 49.5983 46.6725 49.6451 47.1052 49.6824C47.2409 49.6942 47.3582 49.7043 47.4356 49.7037C47.4696 49.7034 47.5034 49.7046 47.5369 49.7071C47.8397 49.7289 48.1249 49.8587 48.341 50.073L50.2574 51.9713C50.4982 52.2103 50.6347 52.5355 50.6371 52.8755C50.6395 53.2155 50.5076 53.5426 50.2703 53.785L43.6595 61.8487C43.5263 61.9858 43.3645 62.0914 43.1857 62.158Z" fill="#2F2E41"/>
<path d="M47.3676 37.1189L47.3574 36.7525C48.0359 36.7336 48.6341 36.6908 49.0835 36.3609C49.211 36.262 49.3157 36.1368 49.3906 35.9936C49.4656 35.8505 49.5089 35.6928 49.5178 35.5313C49.5257 35.4326 49.5108 35.3334 49.4743 35.2414C49.4379 35.1495 49.3808 35.0672 49.3075 35.001C49.0092 34.7478 48.5291 34.8298 48.1792 34.991L47.8774 35.13L48.4561 30.8813L48.8174 30.9311L48.3252 34.5451C48.8007 34.4047 49.2412 34.4651 49.543 34.7212C49.6588 34.8228 49.7497 34.95 49.8086 35.0927C49.8674 35.2355 49.8926 35.39 49.8822 35.5442C49.8716 35.7611 49.8138 35.9732 49.713 36.1654C49.6122 36.3576 49.4708 36.5253 49.2986 36.6568C48.7212 37.0808 47.9706 37.1019 47.3676 37.1189Z" fill="#2F2E41"/>
<path d="M52.5677 31.2427H50.6035V31.6091H52.5677V31.2427Z" fill="#2F2E41"/>
<path d="M46.3685 31.2432H44.4043V31.6096H46.3685V31.2432Z" fill="#2F2E41"/>
<path d="M63.9437 74.3153H33.5856C33.3772 74.3161 33.1724 74.2615 32.9917 74.1572C32.8111 74.0529 32.6611 73.9024 32.5569 73.7211C32.4527 73.5399 32.3981 73.3341 32.3984 73.1248C32.3988 72.9155 32.4543 72.7099 32.5591 72.529L47.7381 46.115C47.8412 45.9331 47.9906 45.7821 48.171 45.6774C48.3515 45.5728 48.5563 45.5183 48.7647 45.5196C48.973 45.5183 49.1778 45.5728 49.3582 45.6774C49.5386 45.7821 49.6881 45.9331 49.7911 46.115L64.9702 72.529C65.0742 72.7101 65.129 72.9154 65.129 73.1245C65.129 73.3335 65.0742 73.5388 64.9702 73.7199C64.8661 73.9009 64.7165 74.0512 64.5363 74.1557C64.3561 74.2603 64.1517 74.3153 63.9437 74.3153Z" fill="#2F2E41"/>
<path d="M48.1363 23.6494C47.7137 21.9643 46.0754 20.6706 44.32 20.7027C43.451 20.727 42.6129 21.0292 41.9302 21.5646C41.5861 21.831 41.2897 22.1535 41.0538 22.5183C40.7893 22.929 40.6231 23.3926 40.4934 23.8605C40.2314 24.806 40.1079 25.8758 39.4428 26.6479C39.1671 26.9604 38.8271 27.2105 38.4458 27.3811C38.0645 27.5517 37.6509 27.6389 37.2328 27.6368C36.8116 27.6303 36.3976 27.5268 36.0233 27.3346C35.649 27.1423 35.3246 26.8665 35.0753 26.5287C34.5747 25.8649 34.3283 24.9469 34.6175 24.1457C34.7594 23.7526 35.0646 23.3812 35.501 23.3157C35.7 23.2889 35.9026 23.3206 36.0838 23.4068C36.265 23.4931 36.4168 23.6301 36.5207 23.8011C36.7169 24.1437 36.6542 24.6007 36.4083 24.9029C36.1493 25.2211 35.7165 25.3092 35.3347 25.1814C35.1553 25.1207 34.9975 25.0094 34.8807 24.861C34.7953 24.7538 34.644 24.9041 34.7285 25.0102C34.8639 25.1717 35.0387 25.2959 35.2362 25.371C35.4337 25.446 35.6473 25.4694 35.8565 25.4388C36.0652 25.4074 36.2613 25.3196 36.4233 25.185C36.5853 25.0503 36.707 24.874 36.7752 24.6753C36.8499 24.4783 36.8695 24.2648 36.8319 24.0575C36.7943 23.8503 36.7009 23.6571 36.5616 23.4984C36.4165 23.3415 36.2333 23.2242 36.0295 23.1578C35.8258 23.0914 35.6083 23.0782 35.398 23.1193C34.9473 23.2142 34.6201 23.5828 34.4502 23.9913C34.2828 24.4157 34.2387 24.8783 34.3228 25.3264C34.4004 25.7589 34.5687 26.1702 34.8167 26.5337C35.0647 26.8971 35.3869 27.2045 35.7623 27.4359C36.5221 27.8999 37.4704 27.9637 38.3039 27.6657C38.7204 27.5191 39.1007 27.2862 39.4197 26.9823C39.7626 26.6364 40.0249 26.2199 40.1884 25.7622C40.5641 24.7836 40.6192 23.6885 41.1509 22.7686C41.6147 21.9875 42.3462 21.3991 43.2112 21.1114C44.0711 20.8159 45.0123 20.8609 45.8398 21.2369C46.6626 21.616 47.3254 22.2705 47.7123 23.0861C47.8045 23.2848 47.8773 23.4919 47.93 23.7044C47.9633 23.8373 48.1696 23.7822 48.1363 23.6494L48.1363 23.6494Z" fill="#2F2E41"/>
<path d="M46.3141 24.0161C45.8914 22.331 44.2532 21.0373 42.4978 21.0694C41.6287 21.0937 40.7907 21.3959 40.1079 21.9313C39.7638 22.1977 39.4675 22.5202 39.2316 22.885C38.967 23.2957 38.8009 23.7593 38.6712 24.2272C38.4091 25.1727 38.2856 26.2425 37.6206 27.0146C37.3448 27.3271 37.0048 27.5772 36.6235 27.7478C36.2423 27.9184 35.8286 28.0056 35.4105 28.0035C34.9893 27.9969 34.5754 27.8935 34.2011 27.7013C33.8268 27.509 33.5023 27.2332 33.2531 26.8954C32.7525 26.2316 32.506 25.3136 32.7952 24.5124C32.9371 24.1193 33.2423 23.7479 33.6787 23.6824C33.8778 23.6556 34.0804 23.6873 34.2615 23.7735C34.4427 23.8598 34.5946 23.9968 34.6984 24.1678C34.8947 24.5104 34.8319 24.9674 34.586 25.2696C34.327 25.5878 33.8942 25.6759 33.5125 25.5481C33.333 25.4874 33.1753 25.3761 33.0584 25.2277C32.973 25.1205 32.8217 25.2708 32.9062 25.3769C33.0416 25.5384 33.2164 25.6626 33.414 25.7377C33.6115 25.8127 33.825 25.8361 34.0342 25.8055C34.2429 25.7741 34.439 25.6863 34.601 25.5517C34.763 25.417 34.8847 25.2407 34.9529 25.042C35.0276 24.845 35.0472 24.6315 35.0096 24.4242C34.972 24.217 34.8786 24.0238 34.7393 23.8651C34.5942 23.7082 34.411 23.5909 34.2073 23.5245C34.0035 23.4581 33.7861 23.4449 33.5757 23.486C33.1251 23.5809 32.7978 23.9495 32.6279 24.358C32.4606 24.7824 32.4164 25.245 32.5005 25.6931C32.5781 26.1256 32.7464 26.5369 32.9944 26.9004C33.2425 27.2638 33.5647 27.5712 33.9401 27.8026C34.6998 28.2666 35.6482 28.3304 36.4816 28.0324C36.8981 27.8858 37.2785 27.6529 37.5975 27.349C37.9403 27.0031 38.2027 26.5866 38.3661 26.1289C38.7419 25.1503 38.7969 24.0552 39.3286 23.1353C39.7924 22.3542 40.524 21.7658 41.3889 21.4781C42.2488 21.1826 43.1901 21.2276 44.0176 21.6036C44.8404 21.9827 45.5031 22.6372 45.89 23.4528C45.9822 23.6515 46.0551 23.8586 46.1077 24.0711C46.1411 24.204 46.3474 24.1489 46.3141 24.0161L46.3141 24.0161Z" fill="#2F2E41"/>
<path d="M50.904 48.0918H46.8923C46.5781 48.0915 46.2768 47.9659 46.0546 47.7427C45.8324 47.5194 45.7074 47.2167 45.707 46.901V46.5346C45.7074 46.2189 45.8324 45.9162 46.0546 45.6929C46.2768 45.4697 46.5781 45.3441 46.8923 45.3438H50.904C51.2183 45.3441 51.5196 45.4697 51.7418 45.6929C51.964 45.9162 52.089 46.2189 52.0893 46.5346V46.901C52.089 47.2167 51.964 47.5194 51.7418 47.7427C51.5196 47.9659 51.2183 48.0915 50.904 48.0918Z" fill="#2F2E41"/>
<path d="M29.7504 76.5803C30.3546 76.5803 30.8445 76.0882 30.8445 75.4811C30.8445 74.874 30.3546 74.3818 29.7504 74.3818C29.1461 74.3818 28.6562 74.874 28.6562 75.4811C28.6562 76.0882 29.1461 76.5803 29.7504 76.5803Z" fill="#B55454"/>
<path d="M82.6332 58.9924C83.2374 58.9924 83.7273 58.5003 83.7273 57.8932C83.7273 57.2861 83.2374 56.7939 82.6332 56.7939C82.0289 56.7939 81.5391 57.2861 81.5391 57.8932C81.5391 58.5003 82.0289 58.9924 82.6332 58.9924Z" fill="#F2F2F2"/>
<path d="M14.0687 63.7556C14.673 63.7556 15.1628 63.2635 15.1628 62.6564C15.1628 62.0493 14.673 61.5571 14.0687 61.5571C13.4645 61.5571 12.9746 62.0493 12.9746 62.6564C12.9746 63.2635 13.4645 63.7556 14.0687 63.7556Z" fill="#FDA4A4"/>
<path d="M95.5799 48C95.6133 58.3575 92.2815 68.443 86.0903 76.7249C82.8332 81.0859 78.871 84.8672 74.3688 87.9114C73.8491 88.265 73.3227 88.6058 72.7896 88.9337C68.7995 91.4049 64.4647 93.2641 59.9284 94.4501C59.6895 94.5123 59.4506 94.5728 59.2118 94.6314C59.0404 94.6736 58.8671 94.7157 58.6939 94.7524C58.4131 94.8201 58.1323 94.8824 57.8496 94.9429H57.8478C54.546 95.6483 51.1795 96.0026 47.8038 96C47.3662 96 46.9292 95.9939 46.4927 95.9817C45.55 95.9579 44.6121 95.9053 43.679 95.8241C40.3744 95.5439 37.1078 94.9182 33.9324 93.9572C33.8066 93.9188 33.6825 93.8803 33.5567 93.84C33.2978 93.7594 33.037 93.6751 32.7799 93.5908C28.1032 92.039 23.6968 89.7624 19.7199 86.8434C19.4755 86.6656 19.2349 86.4861 18.9941 86.3029C17.2403 84.9635 15.5789 83.5061 14.0215 81.9408C12.9419 80.8562 11.9219 79.7307 10.9615 78.5643C7.3777 74.2308 4.5893 69.2916 2.72653 63.9774C-6.04178 38.9587 7.03713 11.5356 31.9391 2.72621C37.036 0.92313 42.4002 0.00132871 47.8038 0C55.0158 0 62.4849 1.84305 69.4034 5.33313L69.2392 5.65924C62.3719 2.19664 54.9594 0.366412 47.8038 0.366412C21.662 0.366412 0.392465 21.7356 0.392465 48C0.38197 58.9181 4.12298 69.5051 10.9834 77.9725C13.2654 80.7982 15.8599 83.3539 18.717 85.5902C18.9321 85.7588 19.1491 85.9261 19.368 86.0922C23.3091 89.072 27.6898 91.4142 32.3513 93.0339C32.5866 93.1163 32.8236 93.1969 33.0626 93.2757C33.4145 93.3911 33.7701 93.5047 34.1275 93.611C37.3166 94.5791 40.5992 95.2037 43.9198 95.4742C44.8534 95.5511 45.7937 95.6 46.7407 95.6208C47.0945 95.6299 47.4482 95.6336 47.8038 95.6336C51.1138 95.6359 54.4148 95.289 57.6526 94.5985C57.6964 94.5893 57.742 94.5801 57.7858 94.5691C58.0884 94.505 58.3893 94.4366 58.6884 94.364C59.0385 94.2833 59.3849 94.1954 59.7315 94.1056C64.7174 92.8018 69.4569 90.6858 73.7616 87.8418C74.1919 87.5597 74.6168 87.269 75.0362 86.9698C84.2253 80.4955 90.8295 70.9551 93.6732 60.047C96.517 49.1389 95.4156 37.5708 90.5652 27.4021L90.8953 27.2446C93.9969 33.7189 95.5985 40.8149 95.5799 48Z" fill="#B8B8B8"/>
<path d="M94.6418 27.7043C90.0446 27.7043 85.8538 26.5831 82.1858 24.3717C78.3066 22.0338 70.3063 23.387 69.7063 24.5799L68.9707 26.3598L71.044 5.75119L71.122 5.6782C71.2926 5.51413 75.4477 1.69919 86.3339 7.06459C94.5966 11.1358 101.351 9.21708 103.871 8.20319C104 8.15092 104.14 8.13242 104.278 8.14941C104.416 8.16641 104.548 8.21833 104.66 8.30033C104.773 8.38232 104.863 8.4917 104.922 8.61819C104.981 8.74468 105.007 8.88415 104.997 9.0235L103.858 25.6295C103.847 25.794 103.788 25.9515 103.686 26.0814C103.585 26.2112 103.448 26.3073 103.291 26.3571C100.492 27.2399 97.5759 27.694 94.6418 27.7043Z" fill="#FF5252"/>
<path d="M70.221 5.0752C69.8869 5.07558 69.5667 5.20908 69.3304 5.44642C69.0942 5.68375 68.9613 6.00554 68.9609 6.34118V48.9903C68.9609 49.326 69.0937 49.648 69.33 49.8855C69.5663 50.1229 69.8868 50.2563 70.221 50.2563C70.5552 50.2563 70.8757 50.1229 71.112 49.8855C71.3483 49.648 71.4811 49.326 71.4811 48.9903V6.34118C71.4807 6.00554 71.3478 5.68375 71.1116 5.44642C70.8754 5.20908 70.5551 5.07558 70.221 5.0752Z" fill="#3F3D56"/>
</g>
<defs>
<clipPath id="clip0_785_3969">
<rect width="105" height="96" fill="white"/>
</clipPath>
</defs>
</svg>
