<svg width="18" height="18" viewBox="0 0 18 18" fill="none" xmlns="http://www.w3.org/2000/svg">
<path d="M16.3124 6.69906e-05H3.93752C3.48997 6.69906e-05 3.0607 0.177939 2.7442 0.494325C2.42782 0.810831 2.24994 1.24006 2.24994 1.68765V3.37506H1.12502C0.723104 3.37506 0.351657 3.58942 0.150766 3.93759C-0.0502553 4.28563 -0.0502553 4.71447 0.150766 5.06251C0.351657 5.41065 0.723104 5.62504 1.12502 5.62504H2.25007L2.24994 7.87498H1.12502C0.723107 7.87498 0.35166 8.08947 0.150769 8.43751C-0.050252 8.78565 -0.050252 9.21439 0.150769 9.56256C0.35166 9.91061 0.723107 10.1251 1.12502 10.1251H2.25008L2.24995 12.375H1.12502C0.72311 12.375 0.351663 12.5894 0.150772 12.9376C-0.0502489 13.2856 -0.0502489 13.7144 0.150772 14.0625C0.351663 14.4106 0.72311 14.625 1.12502 14.625H2.25008V16.3124H2.24995C2.24995 16.76 2.42782 17.1892 2.74421 17.5057C3.06071 17.8221 3.48995 18 3.93753 18H16.3124C16.7599 18 17.1892 17.8221 17.5057 17.5057C17.8221 17.1892 18 16.76 18 16.3124V1.68758C18 1.24003 17.8221 0.810761 17.5057 0.494258C17.1892 0.177882 16.76 0 16.3124 0L16.3124 6.69906e-05ZM12.9374 9.84371H7.31248C6.91057 9.84371 6.53912 9.62935 6.3381 9.28118C6.13721 8.93314 6.13721 8.5043 6.3381 8.15626C6.53912 7.80812 6.91057 7.59373 7.31248 7.59373H12.9374C13.3393 7.59373 13.7107 7.80809 13.9117 8.15626C14.1126 8.5043 14.1126 8.93314 13.9117 9.28118C13.7107 9.62933 13.3393 9.84371 12.9374 9.84371ZM12.9374 5.625H7.31248C6.91057 5.625 6.53912 5.41064 6.3381 5.06248C6.13721 4.71443 6.13721 4.2856 6.3381 3.93756C6.53912 3.58941 6.91057 3.37503 7.31248 3.37503H12.9374C13.3393 3.37503 13.7107 3.58939 13.9117 3.93756C14.1126 4.2856 14.1126 4.71443 13.9117 5.06248C13.7107 5.41062 13.3393 5.625 12.9374 5.625Z" fill="white"/>
</svg>
