<svg width="14" height="13" viewBox="0 0 14 13" fill="none" xmlns="http://www.w3.org/2000/svg">
<path d="M11.2568 0.399902H2.74317C1.7832 0.399902 1 1.3636 1 2.54499V7.36362C1 8.54493 1.78313 9.50871 2.74317 9.50871H5.25684C5.25684 9.99054 5.19367 10.6434 4.96634 11.3273C4.86528 11.6382 4.94105 11.9957 5.14318 12.2134C5.26953 12.3378 5.40848 12.3999 5.56002 12.3999C5.67368 12.3999 5.77474 12.3688 5.8758 12.291C6.88635 11.576 7.74525 10.3947 8.31369 9.49313H11.2568C12.2168 9.49313 13 8.52944 13 7.34804V2.52942C12.9999 1.36362 12.2169 0.399902 11.2568 0.399902ZM12.4821 7.36359C12.4821 8.18742 11.939 8.87135 11.2568 8.87135H8.18735C8.09889 8.87135 8.02312 8.91797 7.97263 8.99572C7.54318 9.71079 6.659 11.0319 5.62317 11.747C5.55999 11.7936 5.5095 11.747 5.48422 11.7315C5.45893 11.716 5.42104 11.6538 5.44633 11.5605C5.74951 10.6123 5.7874 9.74189 5.76212 9.16682C5.76212 8.99583 5.63577 8.85596 5.49681 8.85596L2.74314 8.85586C2.07367 8.85586 1.51788 8.18752 1.51788 7.34809V2.52947C1.51788 1.70564 2.06099 1.02171 2.74314 1.02171H11.2568C11.9263 1.02171 12.482 1.69004 12.482 2.52947L12.4821 7.36359Z" fill="#1484CD"/>
<path d="M12.4821 7.36359C12.4821 8.18742 11.939 8.87135 11.2568 8.87135H8.18735C8.09889 8.87135 8.02312 8.91797 7.97263 8.99572C7.54318 9.71079 6.659 11.0319 5.62317 11.747C5.55999 11.7936 5.5095 11.747 5.48422 11.7315C5.45893 11.716 5.42104 11.6538 5.44633 11.5605C5.74951 10.6123 5.7874 9.74189 5.76212 9.16682C5.76212 8.99583 5.63577 8.85596 5.49681 8.85596L2.74314 8.85586C2.07367 8.85586 1.51788 8.18752 1.51788 7.34809V2.52947C1.51788 1.70564 2.06099 1.02171 2.74314 1.02171H11.2568C11.9263 1.02171 12.482 1.69004 12.482 2.52947L12.4821 7.36359Z" fill="#1484CD"/>
<path d="M11.2568 0.399902H2.74317C1.7832 0.399902 1 1.3636 1 2.54499V7.36362C1 8.54493 1.78313 9.50871 2.74317 9.50871H5.25684C5.25684 9.99054 5.19367 10.6434 4.96634 11.3273C4.86528 11.6382 4.94105 11.9957 5.14318 12.2134C5.26953 12.3378 5.40848 12.3999 5.56002 12.3999C5.67368 12.3999 5.77474 12.3688 5.8758 12.291C6.88635 11.576 7.74525 10.3947 8.31369 9.49313H11.2568C12.2168 9.49313 13 8.52944 13 7.34804V2.52942C12.9999 1.36362 12.2169 0.399902 11.2568 0.399902ZM12.4821 7.36359C12.4821 8.18742 11.939 8.87135 11.2568 8.87135H8.18735C8.09889 8.87135 8.02312 8.91797 7.97263 8.99572C7.54318 9.71079 6.659 11.0319 5.62317 11.747C5.55999 11.7936 5.5095 11.747 5.48422 11.7315C5.45893 11.716 5.42104 11.6538 5.44633 11.5605C5.74951 10.6123 5.7874 9.74189 5.76212 9.16682C5.76212 8.99583 5.63577 8.85596 5.49681 8.85596L2.74314 8.85586C2.07367 8.85586 1.51788 8.18752 1.51788 7.34809V2.52947C1.51788 1.70564 2.06099 1.02171 2.74314 1.02171H11.2568C11.9263 1.02171 12.482 1.69004 12.482 2.52947L12.4821 7.36359Z" stroke="#1484CD" stroke-width="0.7"/>
<path d="M12.4821 7.36359C12.4821 8.18742 11.939 8.87135 11.2568 8.87135H8.18735C8.09889 8.87135 8.02312 8.91797 7.97263 8.99572C7.54318 9.71079 6.659 11.0319 5.62317 11.747C5.55999 11.7936 5.5095 11.747 5.48422 11.7315C5.45893 11.716 5.42104 11.6538 5.44633 11.5605C5.74951 10.6123 5.7874 9.74189 5.76212 9.16682C5.76212 8.99583 5.63577 8.85596 5.49681 8.85596L2.74314 8.85586C2.07367 8.85586 1.51788 8.18752 1.51788 7.34809V2.52947C1.51788 1.70564 2.06099 1.02171 2.74314 1.02171H11.2568C11.9263 1.02171 12.482 1.69004 12.482 2.52947L12.4821 7.36359Z" stroke="#1484CD" stroke-width="0.7"/>
</svg>
