<svg width="18" height="18" viewBox="0 0 18 18" fill="none" xmlns="http://www.w3.org/2000/svg">
<path fill-rule="evenodd" clip-rule="evenodd" d="M15.0803 0H2.91798C1.54659 0 0.427734 1.37671 0.427734 3.06442V9.94816C0.427734 11.6357 1.54649 13.0126 2.91798 13.0126H6.50894C6.50894 13.7009 6.41869 14.6336 6.09394 15.6106C5.94956 16.0547 6.05781 16.5654 6.34656 16.8764C6.52706 17.0541 6.72557 17.1429 6.94204 17.1429C7.10442 17.1429 7.24879 17.0984 7.39317 16.9873C8.8368 15.9658 10.0638 14.2783 10.8759 12.9903H15.0803C16.4517 12.9903 17.5706 11.6136 17.5706 9.92591V3.04217C17.5705 1.37675 16.4518 0 15.0803 0ZM15.0803 12.1021C16.0548 12.1021 16.8307 11.125 16.8307 9.94812L16.8306 3.04224C16.8306 1.84306 16.0367 0.888297 15.0803 0.888297H2.91793C1.94344 0.888297 1.16757 1.86534 1.16757 3.04224V9.92599C1.16757 11.1252 1.96155 12.0799 2.91793 12.0799L6.85175 12.0801C7.05026 12.0801 7.23076 12.2799 7.23076 12.5242C7.26688 13.3457 7.21275 14.5892 6.77963 15.9437C6.74351 16.077 6.79763 16.1659 6.83376 16.188C6.86988 16.2102 6.94201 16.2768 7.03226 16.2102C8.51202 15.1886 9.77514 13.3013 10.3886 12.2797C10.4608 12.1687 10.569 12.1021 10.6954 12.1021H15.0803Z" fill="#3E46FF"/>
<path d="M16.8307 9.94812C16.8307 11.125 16.0548 12.1021 15.0803 12.1021H10.6954C10.569 12.1021 10.4608 12.1687 10.3886 12.2797C9.77514 13.3013 8.51202 15.1886 7.03226 16.2102C6.94201 16.2768 6.86988 16.2102 6.83376 16.188C6.79763 16.1659 6.74351 16.077 6.77963 15.9437C7.21275 14.5892 7.26688 13.3457 7.23076 12.5242C7.23076 12.2799 7.05026 12.0801 6.85175 12.0801L2.91793 12.0799C1.96155 12.0799 1.16757 11.1252 1.16757 9.92599V3.04224C1.16757 1.86534 1.94344 0.888297 2.91793 0.888297H15.0803C16.0367 0.888297 16.8306 1.84306 16.8306 3.04224L16.8307 9.94812Z" fill="#3E46FF"/>
<path d="M13.6716 4.33984H4.32432C4.12582 4.33984 3.94531 4.50222 3.94531 4.71885C3.94531 4.93536 4.10769 5.09786 4.32432 5.09786H13.6897C13.8882 5.09786 14.0687 4.93549 14.0687 4.71885C14.0686 4.50223 13.8882 4.33984 13.6716 4.33984H13.6716Z" fill="white"/>
<path d="M13.6716 7.13672H4.32432C4.12582 7.13672 3.94531 7.29909 3.94531 7.51573C3.94531 7.71423 4.10769 7.89474 4.32432 7.89474H13.6897C13.8882 7.89474 14.0687 7.73236 14.0687 7.51573C14.0506 7.2991 13.8882 7.13672 13.6716 7.13672H13.6716Z" fill="white"/>
</svg>
