<svg width="14" height="14" viewBox="0 0 14 14" fill="none" xmlns="http://www.w3.org/2000/svg">
<path d="M11.2568 1.40039H2.74317C1.7832 1.40039 1 2.36409 1 3.54548V8.3641C1 9.54541 1.78313 10.5092 2.74317 10.5092H5.25684C5.25684 10.991 5.19367 11.6439 4.96634 12.3278C4.86528 12.6387 4.94105 12.9962 5.14318 13.2139C5.26953 13.3383 5.40848 13.4004 5.56002 13.4004C5.67368 13.4004 5.77474 13.3693 5.8758 13.2915C6.88635 12.5765 7.74525 11.3952 8.31369 10.4936H11.2568C12.2168 10.4936 13 9.52992 13 8.34853V3.52991C12.9999 2.36411 12.2169 1.40039 11.2568 1.40039ZM12.4821 8.36408C12.4821 9.18791 11.939 9.87184 11.2568 9.87184H8.18735C8.09889 9.87184 8.02312 9.91846 7.97263 9.9962C7.54318 10.7113 6.659 12.0324 5.62317 12.7475C5.55999 12.7941 5.5095 12.7475 5.48422 12.732C5.45893 12.7165 5.42104 12.6543 5.44633 12.561C5.74951 11.6128 5.7874 10.7424 5.76212 10.1673C5.76212 9.99632 5.63577 9.85645 5.49681 9.85645L2.74314 9.85634C2.07367 9.85634 1.51788 9.18801 1.51788 8.34858V3.52996C1.51788 2.70613 2.06099 2.0222 2.74314 2.0222H11.2568C11.9263 2.0222 12.482 2.69053 12.482 3.52996L12.4821 8.36408Z" fill="#AFB0B0"/>
<path d="M12.4821 8.36408C12.4821 9.18791 11.939 9.87184 11.2568 9.87184H8.18735C8.09889 9.87184 8.02312 9.91846 7.97263 9.9962C7.54318 10.7113 6.659 12.0324 5.62317 12.7475C5.55999 12.7941 5.5095 12.7475 5.48422 12.732C5.45893 12.7165 5.42104 12.6543 5.44633 12.561C5.74951 11.6128 5.7874 10.7424 5.76212 10.1673C5.76212 9.99632 5.63577 9.85645 5.49681 9.85645L2.74314 9.85634C2.07367 9.85634 1.51788 9.18801 1.51788 8.34858V3.52996C1.51788 2.70613 2.06099 2.0222 2.74314 2.0222H11.2568C11.9263 2.0222 12.482 2.69053 12.482 3.52996L12.4821 8.36408Z" fill="#AFB0B0"/>
<path d="M11.2568 1.40039H2.74317C1.7832 1.40039 1 2.36409 1 3.54548V8.3641C1 9.54541 1.78313 10.5092 2.74317 10.5092H5.25684C5.25684 10.991 5.19367 11.6439 4.96634 12.3278C4.86528 12.6387 4.94105 12.9962 5.14318 13.2139C5.26953 13.3383 5.40848 13.4004 5.56002 13.4004C5.67368 13.4004 5.77474 13.3693 5.8758 13.2915C6.88635 12.5765 7.74525 11.3952 8.31369 10.4936H11.2568C12.2168 10.4936 13 9.52992 13 8.34853V3.52991C12.9999 2.36411 12.2169 1.40039 11.2568 1.40039ZM12.4821 8.36408C12.4821 9.18791 11.939 9.87184 11.2568 9.87184H8.18735C8.09889 9.87184 8.02312 9.91846 7.97263 9.9962C7.54318 10.7113 6.659 12.0324 5.62317 12.7475C5.55999 12.7941 5.5095 12.7475 5.48422 12.732C5.45893 12.7165 5.42104 12.6543 5.44633 12.561C5.74951 11.6128 5.7874 10.7424 5.76212 10.1673C5.76212 9.99632 5.63577 9.85645 5.49681 9.85645L2.74314 9.85634C2.07367 9.85634 1.51788 9.18801 1.51788 8.34858V3.52996C1.51788 2.70613 2.06099 2.0222 2.74314 2.0222H11.2568C11.9263 2.0222 12.482 2.69053 12.482 3.52996L12.4821 8.36408Z" stroke="#AFB0B0" stroke-width="0.7"/>
<path d="M12.4821 8.36408C12.4821 9.18791 11.939 9.87184 11.2568 9.87184H8.18735C8.09889 9.87184 8.02312 9.91846 7.97263 9.9962C7.54318 10.7113 6.659 12.0324 5.62317 12.7475C5.55999 12.7941 5.5095 12.7475 5.48422 12.732C5.45893 12.7165 5.42104 12.6543 5.44633 12.561C5.74951 11.6128 5.7874 10.7424 5.76212 10.1673C5.76212 9.99632 5.63577 9.85645 5.49681 9.85645L2.74314 9.85634C2.07367 9.85634 1.51788 9.18801 1.51788 8.34858V3.52996C1.51788 2.70613 2.06099 2.0222 2.74314 2.0222H11.2568C11.9263 2.0222 12.482 2.69053 12.482 3.52996L12.4821 8.36408Z" stroke="#AFB0B0" stroke-width="0.7"/>
<path d="M10.2713 4.4375H3.7282C3.58925 4.4375 3.46289 4.55116 3.46289 4.70281C3.46289 4.85436 3.57655 4.96811 3.7282 4.96811H10.284C10.4229 4.96811 10.5493 4.85445 10.5493 4.70281C10.5492 4.55117 10.4229 4.4375 10.2713 4.4375H10.2713Z" fill="#AFB0B0" stroke="white" stroke-width="0.7"/>
<path d="M10.2713 6.39648H3.7282C3.58925 6.39648 3.46289 6.51015 3.46289 6.66179C3.46289 6.80074 3.57655 6.9271 3.7282 6.9271H10.284C10.4229 6.9271 10.5493 6.81343 10.5493 6.66179C10.5366 6.51015 10.4229 6.39648 10.2713 6.39648H10.2713Z" fill="#AFB0B0" stroke="white" stroke-width="0.7"/>
</svg>
