<svg width="14" height="18" viewBox="0 0 14 18" fill="none" xmlns="http://www.w3.org/2000/svg">
<path d="M13.565 4.88223V3.84661C13.565 3.08226 12.9486 2.46582 12.1843 2.46582H1.63078C0.866441 2.46582 0.25 3.08226 0.25 3.84661V4.88223C0.25 5.03015 0.373323 5.17807 0.545839 5.17807H13.2938C13.4418 5.17807 13.5651 5.05474 13.5651 4.88223H13.565Z" fill="#4E4E4E"/>
<path d="M2.93783 18H10.8529C11.79 18 12.5544 17.2357 12.5544 16.2986L12.5542 5.91772H1.23633V16.2986C1.23633 17.2355 2.00067 17.9998 2.93775 17.9998L2.93783 18ZM8.88033 8.77806C8.88033 8.50681 9.10221 8.28495 9.37344 8.28495C9.64467 8.28495 9.86655 8.50683 9.86655 8.77806V15.0411C9.86655 15.3123 9.64467 15.5342 9.37344 15.5342C9.10221 15.5342 8.88033 15.3123 8.88033 15.0411V8.77806ZM6.41456 8.77806C6.41456 8.50681 6.63644 8.28495 6.90767 8.28495C7.1789 8.28495 7.40078 8.50683 7.40078 8.77806V15.0411C7.40078 15.3123 7.1789 15.5342 6.90767 15.5342C6.63644 15.5342 6.41456 15.3123 6.41456 15.0411V8.77806ZM3.9488 8.77806C3.9488 8.50681 4.17068 8.28495 4.44191 8.28495C4.71314 8.28495 4.93502 8.50683 4.93502 8.77806V15.0411C4.93502 15.3123 4.71314 15.5342 4.44191 15.5342C4.17068 15.5342 3.9488 15.3123 3.9488 15.0411V8.77806Z" fill="#4E4E4E"/>
<path d="M8.18902 0H5.62454C5.10664 0 4.6875 0.419158 4.6875 0.937035L4.68767 1.97248H9.12605V0.936859C9.12588 0.419136 8.70672 0 8.18902 0H8.18902Z" fill="#4E4E4E"/>
</svg>
