<svg width="14" height="12" viewBox="0 0 14 12" fill="none" xmlns="http://www.w3.org/2000/svg">
<path fill-rule="evenodd" clip-rule="evenodd" d="M6.99292 11.9633C7.40055 8.13883 5.0644 6.5441 4.40234 6.17286C4.40782 6.13337 4.41055 6.09126 4.41055 6.04914V0.593048L5.49934 0.0166035H11.2248C11.2357 0.0166035 11.2494 0.0166035 11.2603 0.0139713C12.5789 -0.159752 12.6308 1.34045 12.6308 1.52733C12.6226 1.62208 12.6773 1.71684 12.773 1.75632C13.5992 2.0985 13.249 3.1723 13.2162 3.26442C13.1725 3.37234 13.2244 3.49605 13.3339 3.54869C14.4062 4.0488 13.7305 4.94888 13.643 5.06205C13.5719 5.13575 13.5609 5.24893 13.6184 5.33843C15.5606 8.20471 9.49305 7.49667 9.10486 7.44928C9.07477 7.44401 9.04194 7.44138 9.00911 7.44928C8.88053 7.47297 8.79846 7.59141 8.82309 7.71513C9.72859 12.129 7.64125 12.0815 6.98757 11.9683L6.99292 11.9633Z" fill="#1484CD"/>
<path fill-rule="evenodd" clip-rule="evenodd" d="M4.02135 0.527287V6.04916C4.02135 6.18077 3.96664 6.29922 3.87636 6.38344C3.78608 6.4703 3.66297 6.52295 3.52892 6.52295H0.492427C0.355641 6.52295 0.232535 6.47031 0.144993 6.38344C0.0547159 6.29658 0 6.17814 0 6.04916V0.527287C0 0.395679 0.0547126 0.277232 0.144993 0.193003C0.23527 0.106143 0.358375 0.0534973 0.492427 0.0534973H3.52892C3.66571 0.0534973 3.78881 0.10614 3.87636 0.193003C3.95022 0.26407 3.99946 0.356194 4.01588 0.458851C4.01588 0.474644 4.01588 0.493069 4.02135 0.508862V0.527287H4.02135Z" fill="#1484CD"/>
</svg>
