<svg width="14" height="15" viewBox="0 0 14 15" fill="none" xmlns="http://www.w3.org/2000/svg">
<path d="M9.56328 0.00661482H3.52293C3.04564 -0.019639 2.56827 0.0568776 2.1231 0.230993C1.67793 0.405108 1.27532 0.672764 0.942494 1.01587C0.609666 1.35897 0.354374 1.76953 0.193874 2.21979C0.0333742 2.67005 -0.0285938 3.14952 0.0121588 3.6258V10.8532C-0.0281852 11.3317 0.0350723 11.8133 0.197623 12.2651C0.360174 12.717 0.6182 13.1285 0.954127 13.4717C1.29005 13.8148 1.69599 14.0816 2.14429 14.2537C2.5926 14.4258 3.07273 14.4993 3.552 14.4692H9.59234C10.0692 14.4953 10.546 14.4189 10.9908 14.2452C11.4356 14.0714 11.838 13.8042 12.1708 13.4618C12.5036 13.1193 12.7591 12.7094 12.92 12.2599C13.081 11.8103 13.1437 11.3314 13.1039 10.8555V3.62815C13.145 3.14916 13.0822 2.66694 12.9199 2.2144C12.7577 1.76187 12.4997 1.34966 12.1636 1.00589C11.8275 0.662133 11.4213 0.394911 10.9725 0.22246C10.5238 0.0500084 10.0431 -0.0236141 9.56328 0.00661482V0.00661482Z" fill="#1484CD"/>
<path d="M9.41019 9.59033H3.73828H9.41019Z" fill="#1484CD"/>
<path d="M9.41019 9.59033H3.73828" stroke="white" stroke-width="1.5" stroke-miterlimit="10" stroke-linecap="round" stroke-linejoin="round"/>
<path d="M9.41019 6.30273H3.73828H9.41019Z" fill="#1484CD"/>
<path d="M9.41019 6.30273H3.73828" stroke="white" stroke-width="1.5" stroke-miterlimit="10" stroke-linecap="round" stroke-linejoin="round"/>
<path d="M5.90256 3.02051H3.73828H5.90256Z" fill="#1484CD"/>
<path d="M5.90256 3.02051H3.73828" stroke="white" stroke-width="1.5" stroke-miterlimit="10" stroke-linecap="round" stroke-linejoin="round"/>
</svg>
