<svg width="10" height="11" viewBox="0 0 10 11" fill="none" xmlns="http://www.w3.org/2000/svg">
<path d="M5.56776 7.15836C5.56907 7.11714 5.58845 7.09784 5.5793 7.04747C5.65416 6.99337 5.64766 6.92882 5.67726 6.8166C5.72128 6.65161 5.91983 6.37046 5.7508 6.24414C5.68881 6.30095 5.73282 6.34605 5.70182 6.40278C5.65161 6.49701 5.51358 6.50856 5.45818 6.5859C5.3975 6.67099 5.3782 6.82576 5.42207 6.90309C5.3331 7.00244 5.27901 7.15572 5.36007 7.30406C5.47244 7.29894 5.50584 7.21385 5.56777 7.15836H5.56776Z" fill="#798183"/>
<path d="M9.66926 3.71533C9.41514 3.04995 9.02441 2.4519 8.52929 1.95864C7.63551 1.06804 6.4067 0.514109 5.04752 0.500697C5.03078 0.500697 5.01528 0.5 4.99978 0.5C4.10089 0.5 3.25874 0.738526 2.5302 1.15253C1.47012 1.75669 0.652529 2.73649 0.259218 3.91136C0.0929106 4.40657 0.00138874 4.93657 0 5.48734V5.50013C0 5.79547 0.0271241 6.08578 0.076101 6.36801C0.144453 6.75874 0.257986 7.13267 0.411501 7.48738C1.17469 9.24516 2.91699 10.4779 4.9507 10.4988C4.96744 10.4988 4.98294 10.5 4.99968 10.5C5.89593 10.5 6.73552 10.2627 7.4629 9.85003C8.97687 8.99121 9.99815 7.36498 9.99815 5.5001C9.9983 4.8709 9.88082 4.26991 9.66941 3.71543L9.66926 3.71533ZM6.52794 9.4796C6.45315 9.47061 6.42998 9.43194 6.36418 9.46805C6.36666 9.40365 6.25189 9.4565 6.24678 9.39714C6.06102 9.42171 5.88703 9.441 5.74637 9.51447C5.69484 9.5416 5.65741 9.59701 5.60572 9.60871C5.57108 9.61514 5.52194 9.59205 5.48839 9.59716C5.38516 9.61002 5.21365 9.75192 5.09254 9.77261C5.03713 9.78028 4.98032 9.76486 4.91577 9.77261C4.90166 9.77905 4.88485 9.78416 4.86935 9.79059C4.49675 9.77905 4.13685 9.72092 3.79516 9.62041C3.80415 9.60615 3.81445 9.59205 3.80802 9.56105C3.62358 9.45015 3.49339 9.28516 3.31793 9.16387C3.31414 9.0749 3.38892 9.06452 3.45859 9.04785C3.41217 8.93688 3.16836 8.98462 3.17876 9.14062C3.18124 9.19363 3.21867 9.1896 3.2251 9.25803C3.17225 9.23346 3.16458 9.16263 3.09622 9.15356C3.12846 9.13171 3.12319 9.07359 3.07297 9.07103C3.01888 9.06072 3.05112 9.13558 3.02656 9.15356C2.96859 9.15356 2.96975 9.1407 2.92209 9.15356C2.92728 9.22579 3.0226 9.25035 3.07298 9.21153C3.09754 9.25276 3.09754 9.27477 3.07298 9.31731C3.11684 9.38171 3.2251 9.37528 3.2947 9.36241C3.31795 9.36621 3.29222 9.33018 3.28315 9.32762C3.30772 9.2967 3.33484 9.36117 3.34112 9.38698C3.30632 9.4024 3.27013 9.41023 3.23549 9.41395C3.11281 9.35854 2.99433 9.29786 2.87823 9.23207C2.86536 9.2037 2.83437 9.19215 2.79957 9.18565C2.775 9.17278 2.75183 9.15728 2.72858 9.1431V9.14178C2.72727 9.14178 2.72727 9.14178 2.72479 9.14046C2.41139 8.94448 2.12628 8.70974 1.87365 8.44153C1.8659 8.42596 1.8542 8.41317 1.84009 8.40674C1.13596 7.64208 0.706543 6.62068 0.706543 5.49991C0.706543 5.07305 0.768463 4.66178 0.884554 4.27228C0.901216 4.32126 0.898813 4.38969 0.938647 4.41534C1.00963 4.37279 0.929658 4.2529 0.917955 4.16905C0.917955 4.1665 0.919273 4.16262 0.920513 4.16006C0.947482 4.23485 1.01072 4.30181 1.03141 4.38046C1.04296 4.42556 1.01583 4.45664 1.01986 4.49655C1.03412 4.63589 1.14239 4.65139 1.26484 4.74283C1.3228 4.75709 1.31381 4.70687 1.35768 4.70819C1.39123 4.86419 1.61945 4.82808 1.62721 5.00996C1.65046 5.04863 1.70463 5.05638 1.70719 5.11559C1.76918 5.10404 1.7626 5.16069 1.83614 5.16333C1.858 5.14535 1.8387 5.08723 1.88256 5.09234C1.94192 5.14264 1.94564 5.24842 1.94053 5.36063C1.89783 5.46765 1.75345 5.62117 1.85931 5.73455C1.76911 5.82739 1.86443 5.9782 1.94053 6.01439C1.98563 6.18457 2.05274 6.33034 2.15071 6.44511C2.24882 6.46581 2.28733 6.54307 2.33778 6.60902C2.3391 6.85661 2.37134 7.07067 2.39575 7.28603C2.41117 7.40344 2.36863 7.52069 2.3739 7.63553C2.38033 7.79417 2.49766 7.89731 2.47821 8.06757C2.45891 8.06889 2.4331 8.06238 2.43179 8.07912C2.41249 8.15011 2.47689 8.13453 2.48975 8.17336C2.54005 8.33966 2.575 8.52286 2.73487 8.58083C2.77098 8.58595 2.74386 8.52658 2.77098 8.52402C2.78253 8.49303 2.77478 8.62338 2.73618 8.61687C2.7864 8.69033 2.94241 8.73148 3.03927 8.69801C2.93604 8.62322 2.84064 8.53937 2.78253 8.41817C2.81616 8.36664 2.84577 8.30983 2.87537 8.25566C2.86894 8.19886 2.80958 8.1977 2.78253 8.16158C2.77222 8.1126 2.83422 8.13578 2.8522 8.11516C2.83422 8.09842 2.84189 8.0558 2.84065 8.02093C2.85491 8.00535 2.89746 8.01705 2.89862 7.98613C2.90381 7.92816 2.80578 7.97055 2.8174 7.90491C2.84716 7.91522 2.8794 7.92049 2.92187 7.91646C2.94116 7.87655 2.92187 7.83912 2.92187 7.80045C3.09476 7.85966 3.19271 7.72946 3.10894 7.60182C3.1425 7.60314 3.18504 7.59539 3.20302 7.61336C3.33965 7.53339 3.38491 7.36065 3.48301 7.23944C3.48681 7.18534 3.46116 7.15946 3.47147 7.1001C3.51533 7.02803 3.60949 7.00602 3.6687 6.94797C3.7217 6.94278 3.76812 6.96463 3.80935 6.94797C3.91637 6.90527 3.96024 6.57537 3.93831 6.38829C3.98217 6.35349 4.20653 6.12262 4.1587 5.99111C4.10716 5.84666 3.78997 5.69832 3.57584 5.72288C3.5216 5.5978 3.37978 5.61447 3.27268 5.55898C3.23277 5.35013 3.14629 5.18753 2.8755 5.20947C2.82265 5.09338 2.65767 5.04696 2.64208 4.92964C2.56722 4.92065 2.51568 4.93483 2.49119 4.97606C2.44733 4.94762 2.42539 4.96048 2.36231 4.96452C2.34154 4.92197 2.29644 4.90655 2.28109 4.86005C2.227 4.86005 2.23212 4.8988 2.21011 4.84719C2.11347 4.89105 2.01668 4.93359 1.98839 5.04574C1.94569 5.02388 1.85176 4.9942 1.77938 5.04574C1.6543 4.94398 1.85672 4.59192 1.55766 4.68343C1.57951 4.58664 1.62074 4.50666 1.6388 4.40483C1.62469 4.39453 1.61043 4.38941 1.59889 4.38414C1.63244 4.34159 1.68785 4.32222 1.77178 4.33005C1.77178 4.16885 1.59772 4.16614 1.47126 4.20241C1.45057 4.16498 1.40159 4.12119 1.34362 4.08252C1.37206 4.0361 1.41073 4.0013 1.46359 3.98441C1.52039 3.9793 1.52155 4.02827 1.56937 4.03083C1.60029 4.01928 1.60804 3.98309 1.60401 3.93675C1.69313 3.91862 1.70344 3.95744 1.77946 3.93675C1.78977 4.0347 1.81038 4.12499 1.84913 4.19343C1.98064 4.07734 1.831 3.87624 1.9188 3.73945C1.9832 3.6401 2.10448 3.6401 2.14052 3.51773C2.14711 3.47898 2.13285 3.46348 2.12898 3.43651C2.19864 3.39265 2.21918 3.29988 2.25793 3.22494C2.33271 3.19929 2.35325 3.11932 2.43191 3.09739C2.44749 3.05097 2.39456 3.07414 2.40866 3.02772C2.44222 2.95285 2.5442 2.94386 2.59574 2.88838C2.61131 2.90636 2.58543 2.95673 2.61899 2.98122C2.69377 2.92837 2.79304 2.89868 2.86396 2.84056C2.87427 2.78903 2.84327 2.77616 2.80599 2.77089C2.80731 2.73734 2.85497 2.7502 2.85241 2.713C2.84474 2.6717 2.76345 2.70014 2.7364 2.67821C2.74539 2.57467 2.84474 2.63179 2.91038 2.58537C2.92193 2.52701 2.83691 2.56506 2.81754 2.53794C2.88976 2.49795 3.01748 2.51213 3.02787 2.40898C3.13234 2.39356 3.18651 2.32723 3.21355 2.23431C3.20844 2.17433 3.12335 2.19432 3.13242 2.11752C3.08972 2.12139 3.05624 2.1155 3.02795 2.10652C3.00083 1.99306 2.97115 1.88279 2.93371 1.77901C2.90016 1.78358 2.87962 1.80024 2.86273 1.82156C2.86025 1.82024 2.85893 1.8183 2.8563 1.81768C2.84475 1.83326 2.81755 1.82814 2.79562 1.81458C3.04833 1.66369 3.31786 1.53792 3.60166 1.44065C3.61453 1.45731 3.62878 1.47351 3.65707 1.47607C3.63522 1.52443 3.63382 1.54442 3.66862 1.58038C3.71636 1.58952 3.73573 1.56938 3.7744 1.56938C3.79765 1.58495 3.80408 1.61781 3.83237 1.62734C3.92134 1.57255 4.04377 1.49258 4.00767 1.38237C4.03611 1.36811 4.05168 1.33982 4.06447 1.30883C4.36632 1.24171 4.67831 1.2063 4.99947 1.2063C5.48305 1.2063 5.94725 1.28751 6.38186 1.4353C6.34311 1.54751 6.38953 1.73838 6.49276 1.75582C6.57273 1.76938 6.59211 1.70615 6.67983 1.68615C6.69781 1.76807 6.7495 1.81829 6.79585 1.87261C6.79841 1.93003 6.70952 1.89516 6.72633 1.96607C6.74958 2.03775 6.9093 2.03961 6.95976 2.01249C6.97402 1.90996 6.96875 1.78876 7.054 1.75581C7.05531 1.7455 7.05531 1.73651 7.054 1.72938C7.13521 1.77379 7.21387 1.82091 7.29129 1.87058C7.30416 1.90856 7.34415 1.93367 7.34539 1.98977C7.28998 1.99303 7.30927 1.92336 7.25115 1.93111C7.17505 1.95498 7.19574 2.07688 7.15831 2.14144C7.01773 2.08975 6.89141 2.20142 6.77401 2.09433C6.81012 2.01567 6.72247 2.02024 6.69155 1.97754C6.72247 1.89376 6.72635 1.85502 6.69155 1.768C6.53547 1.77637 6.55609 1.94461 6.61033 2.04783C6.55864 2.0524 6.47371 2.04915 6.4117 2.0717C6.37179 2.1175 6.36528 2.19678 6.27112 2.18848C6.23501 2.15624 6.31104 2.13052 6.27112 2.09425C6.25439 2.0717 6.21176 2.07689 6.18991 2.05945C6.18735 1.97948 6.14217 1.94336 6.08413 1.91887C6.09311 1.87555 6.0997 1.83634 6.03771 1.83766C6.03003 1.78798 6.07514 1.79054 6.0725 1.74412C6.06483 1.71444 6.03515 1.70359 5.99128 1.70932C5.98098 1.67647 6.00802 1.6791 6.00283 1.65135C5.98353 1.63136 5.93448 1.64167 5.8972 1.63911C5.84179 1.67336 5.85078 1.77078 5.80436 1.81456C5.79917 1.85137 5.86117 1.81836 5.85078 1.86098C5.85845 1.9074 5.79537 1.87578 5.79281 1.86098C5.71671 1.89121 5.69742 1.95576 5.60574 1.94274C5.6162 1.9873 5.62131 2.03698 5.61728 2.09425C5.64704 2.12393 5.69982 2.12904 5.72175 2.16454C5.79142 2.15028 5.84171 2.12129 5.87395 2.0703V1.96584C5.90232 1.95553 5.92549 1.93817 5.96819 1.94259C5.95664 1.98839 6.00283 1.97738 5.99128 2.02326C5.96292 2.02256 5.93448 2.02194 5.92177 2.03551C5.91262 2.07937 5.94107 2.08518 5.93332 2.12904C5.90356 2.12703 5.87651 2.12703 5.86365 2.14129C5.86613 2.17151 5.89062 2.18252 5.93332 2.17608C5.92812 2.22452 5.87775 2.22956 5.86365 2.26893C5.94486 2.29659 6.08281 2.27923 6.15504 2.25738C6.13179 2.31535 6.19247 2.2883 6.18984 2.32705C6.07507 2.26838 6.07119 2.37401 5.93316 2.35084C5.91642 2.36572 5.92161 2.40113 5.92161 2.43275C6.02468 2.4863 6.17688 2.54753 6.1073 2.7349C5.94355 2.76187 5.76043 2.6447 5.66502 2.74769C5.73337 2.88958 5.6496 3.03024 5.67657 3.1681C5.74624 3.18623 5.84675 3.17469 5.88557 3.22491C5.85078 3.25722 5.81591 3.28814 5.81591 3.35386C5.64441 3.39261 5.66758 3.62726 5.55923 3.72779C5.34889 3.80645 5.29348 4.03863 5.17359 4.20494C5.27411 4.30685 5.22645 4.53516 5.16205 4.63823C5.18003 4.67814 5.21095 4.70534 5.19684 4.77741C5.23148 4.83298 5.29216 4.86126 5.34897 4.89482C5.43019 5.07926 5.52186 5.31523 5.72157 5.33709C5.80937 5.3474 5.85447 5.2713 5.9319 5.26742C6.00669 5.26487 6.02854 5.32028 6.1072 5.32539C6.22716 5.29315 6.33674 5.18877 6.45796 5.2093C6.55847 5.22728 6.62814 5.40273 6.74949 5.31377C6.79204 5.39498 6.77514 5.55874 6.73663 5.62839C6.78173 5.77928 6.89526 5.86057 6.92363 6.02557C7.14418 6.18158 6.89139 6.41508 6.91208 6.62136C6.92239 6.72443 7.0153 6.80193 7.02949 6.91276C7.05529 7.12944 7.12101 7.28808 7.22804 7.44911C7.22936 7.48274 7.18813 7.47236 7.20479 7.51878C7.24989 7.70067 7.44208 7.50979 7.55429 7.55358C7.66651 7.48267 7.79671 7.43105 7.83413 7.28535C7.98377 7.22855 7.99144 7.02992 8.06755 6.89972H8.12552C8.16807 6.83772 8.17194 6.70629 8.12552 6.64429C8.17853 6.53339 8.27904 6.47031 8.37063 6.39932C8.37575 6.2523 8.43255 6.16202 8.39388 6.04856C8.37575 5.99447 8.30747 5.96734 8.30104 5.9196C8.2726 5.73532 8.51517 5.68751 8.53447 5.48888C8.56539 5.48121 8.57833 5.45532 8.60414 5.44246C8.64157 5.23748 8.78602 5.07893 8.76804 4.85829C8.68024 4.90084 8.57198 4.9113 8.48805 4.92928C8.45713 4.89185 8.50875 4.86349 8.52285 4.83504C8.42753 4.68927 8.23278 4.53071 8.26617 4.33341C8.18883 4.2315 8.10227 4.07667 8.09072 3.94903C8.16294 3.93361 8.18612 4.06132 8.20813 4.13479C8.21843 4.18253 8.27005 4.1902 8.28934 4.22902C8.29965 4.44432 8.46464 4.50376 8.47503 4.71911C8.52144 4.75507 8.51501 4.84287 8.58081 4.85829C8.62723 4.86604 8.61436 4.81443 8.6156 4.77708C8.74068 4.69198 8.89289 4.63534 8.99991 4.5321C8.99991 4.44577 9.054 4.4367 9.04764 4.3682C9.03997 4.29341 8.94186 4.26629 8.94186 4.18252C9.00254 4.18763 9.04377 4.2122 9.09918 4.22374C9.22558 4.62751 9.29261 5.05552 9.29261 5.49902C9.29261 7.23108 8.26485 8.72427 6.78693 9.40138C6.67487 9.39712 6.58203 9.40743 6.52793 9.4795L6.52794 9.4796ZM2.66565 2.59581C2.63341 2.5855 2.67596 2.55481 2.67596 2.53746C2.72106 2.54334 2.73393 2.51622 2.78174 2.52591C2.77515 2.58163 2.69649 2.56528 2.66565 2.59581L2.66565 2.59581ZM2.7237 2.73515C2.75067 2.73895 2.77143 2.74925 2.79336 2.75956C2.78298 2.78413 2.7082 2.77514 2.7237 2.73515ZM2.12783 2.53746C2.08792 2.47546 2.11372 2.39626 2.12783 2.32728C2.12914 2.31953 2.12527 2.31682 2.12015 2.31573C2.19362 2.24916 2.2698 2.18678 2.34713 2.12478C2.33288 2.23514 2.24778 2.27512 2.18594 2.33898C2.21555 2.40276 2.22066 2.53226 2.12782 2.53745L2.12783 2.53746ZM2.03491 2.98144C1.98469 2.93633 1.97299 3.006 1.96539 3.0394C1.95385 3.00461 1.93695 2.97361 1.92928 2.93362C1.96539 2.95036 1.97183 2.92851 2.02336 2.93362C2.02212 2.95571 2.03762 2.95827 2.03491 2.98144L2.03491 2.98144ZM1.77839 2.87565C1.79513 2.8538 1.82737 2.84729 1.83636 2.81769C1.87379 2.82799 1.89704 2.84992 1.89432 2.8989C1.85434 2.88991 1.85046 2.91704 1.81311 2.91045C1.82605 2.87434 1.82481 2.87302 1.77839 2.87565V2.87565ZM1.74352 2.92347C1.72282 2.91448 1.7422 2.90161 1.74352 2.88736C1.76413 2.89627 1.74483 2.90789 1.74352 2.92347ZM1.47142 4.21557C1.46886 4.2427 1.48816 4.24781 1.48568 4.27354C1.44569 4.27098 1.40834 4.27222 1.41469 4.31609C1.4405 4.38444 1.50893 4.3522 1.55915 4.37932C1.46894 4.39087 1.48305 4.59849 1.33473 4.56888C1.32318 4.53408 1.31287 4.49534 1.30636 4.45667C1.31923 4.45411 1.33604 4.45147 1.3579 4.44512C1.34503 4.37289 1.31667 4.35491 1.2921 4.36127C1.28955 4.32771 1.29079 4.29292 1.29342 4.25936C1.37084 4.26331 1.41346 4.23107 1.47143 4.21557L1.47142 4.21557ZM2.1988 4.95186C2.19749 4.9235 2.21678 4.91707 2.22205 4.8939C2.26452 4.90288 2.23624 4.95713 2.1988 4.95186ZM8.90721 4.08926C8.86986 4.14606 8.85567 4.22333 8.75508 4.21821C8.72928 4.18597 8.72153 4.13436 8.72029 4.07756C8.69843 4.0557 8.67759 4.07376 8.65062 4.07756C8.63132 4.00277 8.58351 3.95767 8.57963 3.86738C8.70603 3.90218 8.67898 4.08654 8.80274 4.12406C8.85296 4.12786 8.86211 4.09043 8.90721 4.08926L8.90721 4.08926ZM8.59125 3.14775C8.59125 3.15031 8.59125 3.15294 8.59257 3.1555C8.60156 3.16829 8.61187 3.18115 8.62101 3.19417C8.62613 3.20184 8.63 3.20975 8.6338 3.21603C8.66224 3.25989 8.6841 3.30887 8.68549 3.37722C8.50872 3.38489 8.44038 3.24826 8.49973 3.08582C8.42495 3.01096 8.35528 2.89874 8.32575 2.78661C8.41968 2.90146 8.50864 3.02265 8.59126 3.14774L8.59125 3.14775ZM7.34411 3.68039C7.15966 3.61599 7.05527 3.47155 6.87727 3.40056C6.90439 3.30516 6.82318 3.28835 6.85402 3.22511C6.81922 3.21224 6.78567 3.2007 6.75994 3.17869C6.72514 3.18256 6.70825 3.20449 6.67872 3.2148C6.53295 3.19682 6.40399 3.18388 6.26986 3.2148C6.14478 3.24193 6.0183 3.34244 5.89726 3.23805C6.04799 3.22906 6.15509 3.19031 6.23514 3.10917C6.20933 2.91187 6.38347 2.91442 6.41044 2.76996C6.52141 2.81119 6.6065 2.78151 6.69043 2.73517C6.78466 2.88218 6.9974 2.91047 7.03993 3.1091C6.97925 3.1194 6.92648 3.13878 6.86587 3.09755C6.84402 3.1659 6.92012 3.22774 6.95872 3.27285C6.99483 3.28184 7.00126 3.25998 7.02839 3.2613C7.03358 3.22007 7.02451 3.1955 7.01684 3.16706C7.05163 3.16706 7.0762 3.20186 7.09937 3.17993C7.1058 3.14397 7.13161 3.12583 7.16904 3.12072C7.17671 3.07802 7.14324 3.07562 7.14579 3.0395C7.18446 3.0395 7.2026 3.09491 7.23856 3.06275C7.24243 2.95829 7.12766 2.97123 7.111 2.8873C7.18067 2.86661 7.20252 2.89629 7.25018 2.92341C7.27862 3.11553 7.34961 3.26649 7.50692 3.33089C7.52622 3.33988 7.52622 3.27679 7.50692 3.28447C7.51847 3.24835 7.53916 3.29733 7.55334 3.29602C7.5817 3.29989 7.54675 3.24316 7.5893 3.26122C7.55962 3.16838 7.54164 3.13482 7.54164 3.01625C7.63316 3.01625 7.62541 3.15799 7.62409 3.2148C7.67834 3.28966 7.75832 3.39536 7.89238 3.35413C7.9336 3.35158 7.92973 3.39404 7.96205 3.40055C8.01226 3.40055 8.03683 3.37343 8.09092 3.3773C8.07806 3.4882 8.08837 3.57585 8.06767 3.69193C7.83937 3.67395 7.61641 3.65582 7.49637 3.50625C7.46157 3.54089 7.3623 3.51268 7.33246 3.55135C7.32355 3.60831 7.35067 3.62753 7.34409 3.68038L7.34411 3.68039ZM6.23514 2.23384C6.27125 2.2171 6.2518 2.3015 6.22359 2.29181C6.2184 2.26407 6.24413 2.26662 6.23514 2.23384ZM7.74011 2.98146C7.71826 2.95302 7.7002 2.92078 7.67044 2.89892C7.70788 2.83956 7.73244 2.76741 7.77491 2.71192C7.83032 2.70805 7.82776 2.75958 7.89232 2.74672C7.87806 2.78136 7.88844 2.78663 7.90263 2.81763C7.95416 2.79198 8.00709 2.81895 8.05607 2.82918C8.06521 2.78407 8.03042 2.78407 8.00841 2.76997C8.02639 2.74672 8.09087 2.76741 8.11404 2.74672C8.11024 2.77369 8.11659 2.79182 8.13729 2.79438C8.1386 2.81895 8.09606 2.79957 8.07932 2.80469C8.08707 2.82925 8.10117 2.84599 8.11675 2.86265C8.10001 2.86397 8.08319 2.86653 8.06777 2.8742C8.06134 2.95805 8.10908 2.98518 8.15418 3.0161C8.18254 2.99285 8.23284 2.99153 8.2612 2.96712C8.29096 2.99037 8.31421 3.01881 8.3232 3.06252C8.11403 3.06779 7.99415 2.91047 7.74011 2.98146L7.74011 2.98146Z" fill="#798183"/>
</svg>
