<svg width="18" height="18" viewBox="0 0 18 18" fill="none" xmlns="http://www.w3.org/2000/svg">
<path d="M8.8631 14.366L8.62885 14.6003H5.80039V11.7719L13.1057 4.46625L13.8003 3.77169V2.60006C13.8003 1.71641 13.0839 1 12.2002 1L5.00015 1.00013L1 4.99995V15.3999C1 16.2836 1.71641 17 2.60006 17H12.2002C13.0838 17 13.8002 16.2836 13.8002 15.3999V9.42833L8.8631 14.366ZM2.20029 5.80032L5.80032 2.20029V5.80032H2.20029ZM8.29738 13.8003H6.60022V12.1033L13.6714 5.03211L15.3684 6.72913L8.29738 13.8003ZM17.0654 5.03197L15.934 6.16328L14.237 4.46625L15.3683 3.33495C15.5246 3.17879 15.7293 3.10057 15.934 3.10057C16.1388 3.10057 16.3435 3.17865 16.4998 3.33495L17.0655 3.90067C17.3778 4.21313 17.3778 4.71952 17.0654 5.03197H17.0654Z" fill="#51607A"/>
</svg>
