<svg width="18" height="19" viewBox="0 0 18 19" fill="none" xmlns="http://www.w3.org/2000/svg">
<path fill-rule="evenodd" clip-rule="evenodd" d="M15.0803 1H2.91798C1.54659 1 0.427734 2.37671 0.427734 4.06442V10.9482C0.427734 12.6357 1.54649 14.0126 2.91798 14.0126H6.50894C6.50894 14.7009 6.41869 15.6336 6.09394 16.6106C5.94956 17.0547 6.05781 17.5654 6.34656 17.8764C6.52706 18.0541 6.72557 18.1429 6.94204 18.1429C7.10442 18.1429 7.24879 18.0984 7.39317 17.9873C8.8368 16.9658 10.0638 15.2783 10.8759 13.9903H15.0803C16.4517 13.9903 17.5706 12.6136 17.5706 10.9259V4.04217C17.5705 2.37675 16.4518 1 15.0803 1ZM15.0803 13.1021C16.0548 13.1021 16.8307 12.125 16.8307 10.9481L16.8306 4.04224C16.8306 2.84306 16.0367 1.8883 15.0803 1.8883H2.91793C1.94344 1.8883 1.16757 2.86534 1.16757 4.04224V10.926C1.16757 12.1252 1.96155 13.0799 2.91793 13.0799L6.85175 13.0801C7.05026 13.0801 7.23076 13.2799 7.23076 13.5242C7.26688 14.3457 7.21275 15.5892 6.77963 16.9437C6.74351 17.077 6.79763 17.1659 6.83376 17.188C6.86988 17.2102 6.94201 17.2768 7.03226 17.2102C8.51202 16.1886 9.77514 14.3013 10.3886 13.2797C10.4608 13.1687 10.569 13.1021 10.6954 13.1021H15.0803Z" fill="#6E6E70" stroke="#6E6E70" stroke-width="0.2"/>
<path d="M13.6716 5.33984H4.32432C4.12582 5.33984 3.94531 5.50222 3.94531 5.71885C3.94531 5.93536 4.10769 6.09786 4.32432 6.09786H13.6897C13.8882 6.09786 14.0687 5.93549 14.0687 5.71885C14.0686 5.50223 13.8882 5.33984 13.6716 5.33984H13.6716Z" fill="#6E6E70"/>
<path d="M13.6716 8.13672H4.32432C4.12582 8.13672 3.94531 8.29909 3.94531 8.51573C3.94531 8.71423 4.10769 8.89474 4.32432 8.89474H13.6897C13.8882 8.89474 14.0687 8.73236 14.0687 8.51573C14.0506 8.2991 13.8882 8.13672 13.6716 8.13672H13.6716Z" fill="#6E6E70"/>
</svg>
