<svg width="20" height="18" viewBox="0 0 20 18" fill="none" xmlns="http://www.w3.org/2000/svg">
<path d="M7.97844 17.0478L6.79883 16.4233V9.02996C8.02533 8.25648 10.8634 5.9047 10.5287 0.928529C10.9266 0.933013 11.3995 1.04024 11.761 1.42777C12.2868 1.99151 12.7521 3.33231 12.1126 6.44948L12.1121 6.45236C12.0209 6.91045 12.3261 7.33147 12.7652 7.41909C12.8936 7.44733 13.006 7.43614 13.0765 7.42473C13.3978 7.38589 15.614 7.13393 17.4116 7.37226C17.8624 7.43202 18.2703 7.52071 18.6068 7.64354C18.9474 7.76787 19.1817 7.91515 19.3219 8.07123C19.4489 8.21255 19.5135 8.37531 19.4966 8.5997C19.4781 8.84444 19.359 9.19241 19.0389 9.66477L19.0388 9.66468L19.0321 9.67514C18.8345 9.98288 18.8595 10.385 19.1042 10.6613C19.173 10.7527 19.3522 11.0119 19.3943 11.2888C19.4144 11.4214 19.3999 11.5378 19.3412 11.6445C19.2817 11.7528 19.1479 11.903 18.8351 12.0489L18.8351 12.0488L18.8297 12.0514C18.4609 12.2288 18.2494 12.6662 18.4095 13.0821C18.431 13.145 18.5351 13.4792 18.5223 13.8334C18.5096 14.1869 18.3939 14.4598 18.0539 14.6006C17.7247 14.7367 17.5243 15.0621 17.5419 15.4044C17.5403 15.5411 17.5153 16.0309 17.3174 16.4504C17.2178 16.6614 17.0871 16.8273 16.9195 16.9322C16.7612 17.0313 16.5273 17.1031 16.1631 17.0576C16.1299 17.0519 16.1024 17.0499 16.0855 17.049C16.0628 17.0478 16.0422 17.0478 16.0348 17.0478H16.0334H7.97844Z" stroke="#121212" stroke-opacity="0.6"/>
<path d="M5.19094 8.81257L5.19098 8.81253C5.15275 8.77575 5.10024 8.75293 5.04132 8.75293H0.703467C0.637774 8.75293 0.58915 8.77754 0.559307 8.80715L0.553842 8.81257L0.553801 8.81253C0.515858 8.84904 0.5 8.89082 0.5 8.92977V16.8182C0.5 16.8636 0.517717 16.9017 0.548221 16.9301L0.553842 16.9354L0.553801 16.9354C0.592033 16.9722 0.644551 16.995 0.703467 16.995H5.04132C5.10701 16.995 5.15563 16.9704 5.18548 16.9408L5.19094 16.9354L5.19098 16.9354C5.21406 16.9132 5.2297 16.8875 5.23812 16.8594C5.23924 16.8412 5.24125 16.8195 5.24478 16.7956C5.24478 16.7956 5.24479 16.7956 5.24479 16.7956M5.19094 8.81257L5.24478 16.8182H5.66881M5.19094 8.81257L5.19656 8.81782C5.22707 8.84628 5.24479 8.88429 5.24479 8.92977L5.24478 16.3182M5.19094 8.81257L5.24478 16.3182M5.24479 16.7956C5.24999 16.7605 5.25849 16.7208 5.27233 16.6808L5.66881 16.8182M5.24479 16.7956L5.24478 16.3182M5.24479 16.7956L5.24478 16.3182M5.66881 16.8182H5.74479L5.74478 16.8445L5.66881 16.8182Z" stroke="#121212" stroke-opacity="0.6"/>
</svg>
