<svg width="20" height="18" viewBox="0 0 20 18" fill="none" xmlns="http://www.w3.org/2000/svg">
<path d="M7.97844 0.785648L6.79883 1.41018V8.80354C8.02533 9.57702 10.8634 11.9288 10.5287 16.905C10.9266 16.9005 11.3995 16.7933 11.761 16.4057C12.2868 15.842 12.7521 14.5012 12.1126 11.384L12.1121 11.3811C12.0209 10.923 12.3261 10.502 12.7652 10.4144C12.8936 10.3862 13.006 10.3974 13.0765 10.4088C13.3978 10.4476 15.614 10.6996 17.4116 10.4612C17.8624 10.4015 18.2703 10.3128 18.6068 10.19C18.9474 10.0656 19.1817 9.91834 19.3219 9.76226C19.4489 9.62094 19.5135 9.45819 19.4966 9.2338C19.4781 8.98905 19.359 8.64109 19.0389 8.16873L19.0388 8.16882L19.0321 8.15835C18.8345 7.85061 18.8595 7.44851 19.1042 7.17222C19.173 7.08077 19.3522 6.82164 19.3943 6.54467C19.4144 6.41214 19.3999 6.29565 19.3412 6.18898C19.2817 6.08075 19.1479 5.93052 18.8351 5.78464L18.8351 5.78467L18.8297 5.78206C18.4609 5.60466 18.2494 5.16728 18.4095 4.75142C18.431 4.68853 18.5351 4.35435 18.5223 4.00013C18.5096 3.64658 18.3939 3.37373 18.0539 3.23291C17.7247 3.09681 17.5243 2.77139 17.5419 2.42907C17.5403 2.29236 17.5153 1.80259 17.3174 1.38309C17.2178 1.17215 17.0871 1.00619 16.9195 0.901247C16.7612 0.802153 16.5273 0.730354 16.1631 0.775869C16.1299 0.781591 16.1024 0.783564 16.0855 0.784466C16.0628 0.785679 16.0422 0.785658 16.0348 0.785648H16.0334H7.97844Z" stroke="#121212" stroke-opacity="0.6"/>
<path d="M5.19094 9.02092L5.19098 9.02097C5.15275 9.05775 5.10024 9.08057 5.04132 9.08057H0.703467C0.637774 9.08057 0.58915 9.05596 0.559307 9.02635L0.553842 9.02092L0.553801 9.02097C0.515858 8.98446 0.5 8.94268 0.5 8.90373V1.01534C0.5 0.969854 0.517717 0.93184 0.548221 0.903379L0.553842 0.898135L0.553801 0.898093C0.592033 0.861309 0.644551 0.838492 0.703467 0.838492H5.04132C5.10701 0.838492 5.15563 0.8631 5.18548 0.892714L5.19094 0.898137L5.19098 0.898094C5.21406 0.920294 5.2297 0.946006 5.23812 0.97409C5.23924 0.992319 5.24125 1.01404 5.24478 1.0379C5.24478 1.0379 5.24479 1.0379 5.24479 1.0379M5.19094 9.02092L5.24478 1.01534H5.66881M5.19094 9.02092L5.19656 9.01568C5.22707 8.98722 5.24479 8.9492 5.24479 8.90373L5.24478 1.51534M5.19094 9.02092L5.24478 1.51534M5.24479 1.0379C5.24999 1.07302 5.25849 1.11274 5.27233 1.15269L5.66881 1.01534M5.24479 1.0379L5.24478 1.51534M5.24479 1.0379L5.24478 1.51534M5.66881 1.01534H5.74479L5.74478 0.989013L5.66881 1.01534Z" stroke="#121212" stroke-opacity="0.6"/>
</svg>
