<svg width="20" height="21" viewBox="0 0 20 21" fill="none" xmlns="http://www.w3.org/2000/svg">
<path d="M10 0.705811C8.02219 0.705811 6.08879 1.28943 4.4443 2.38285C2.79981 3.47628 1.51809 5.03041 0.761209 6.84872C0.00433286 8.66702 -0.193701 10.6678 0.192152 12.5981C0.578004 14.5284 1.53041 16.3015 2.92894 17.6932C4.32746 19.0849 6.10929 20.0326 8.0491 20.4166C9.98891 20.8005 11.9996 20.6035 13.8268 19.8503C15.6541 19.0971 17.2159 17.8217 18.3147 16.1853C19.4135 14.5488 20 12.6249 20 10.6568C19.9971 8.01851 18.9426 5.48909 17.0679 3.62354C15.1932 1.75798 12.6513 0.708664 10 0.705811V0.705811ZM10 17.2908C9.83519 17.2908 9.67407 17.2422 9.53703 17.151C9.39999 17.0599 9.29318 16.9304 9.2301 16.7789C9.16703 16.6274 9.15053 16.4606 9.18268 16.2998C9.21484 16.1389 9.29421 15.9911 9.41075 15.8752C9.52729 15.7592 9.67578 15.6802 9.83743 15.6482C9.99908 15.6162 10.1666 15.6326 10.3189 15.6954C10.4712 15.7582 10.6013 15.8645 10.6929 16.0008C10.7845 16.1372 10.8333 16.2975 10.8333 16.4615C10.8333 16.6815 10.7455 16.8924 10.5893 17.0479C10.433 17.2034 10.221 17.2908 10 17.2908ZM11.6083 11.0764C11.3624 11.2294 11.1613 11.4442 11.0253 11.699C10.8892 11.9539 10.823 12.24 10.8333 12.5284V13.1445C10.8333 13.3645 10.7455 13.5754 10.5893 13.7309C10.433 13.8864 10.221 13.9738 10 13.9738C9.77899 13.9738 9.56703 13.8864 9.41075 13.7309C9.25447 13.5754 9.16667 13.3645 9.16667 13.1445V12.5284C9.15436 11.9433 9.29964 11.3656 9.58744 10.8552C9.87524 10.3449 10.2951 9.92045 10.8033 9.62604C11.1112 9.45729 11.3576 9.19599 11.5073 8.8795C11.657 8.56301 11.7023 8.20753 11.6367 7.86389C11.5717 7.5365 11.4102 7.23581 11.1727 7.00021C10.9352 6.76462 10.6325 6.60482 10.3033 6.54123C10.0631 6.49699 9.81603 6.50584 9.57962 6.56716C9.34321 6.62848 9.12323 6.74077 8.93527 6.89608C8.74731 7.05139 8.59596 7.24593 8.49194 7.46591C8.38792 7.68589 8.33378 7.92593 8.33334 8.16905C8.33334 8.38898 8.24554 8.5999 8.08926 8.75542C7.93298 8.91093 7.72102 8.9983 7.5 8.9983C7.27899 8.9983 7.06703 8.91093 6.91075 8.75542C6.75447 8.5999 6.66667 8.38898 6.66667 8.16905C6.66688 7.58402 6.82258 7.00945 7.11797 6.50363C7.41336 5.99781 7.83793 5.57872 8.34863 5.28889C8.85932 4.99906 9.43796 4.84879 10.0259 4.85333C10.6138 4.85787 11.19 5.01705 11.6961 5.31473C12.2022 5.61241 12.6202 6.03799 12.9077 6.54831C13.1951 7.05863 13.3419 7.63554 13.333 8.2205C13.324 8.80546 13.1598 9.37767 12.8569 9.87909C12.5541 10.3805 12.1233 10.7933 11.6083 11.0756V11.0764Z" fill="#E1E1E1"/>
</svg>
