<svg width="14" height="15" viewBox="0 0 14 15" fill="none" xmlns="http://www.w3.org/2000/svg">
<circle cx="7" cy="7.5" r="7" fill="url(#paint0_linear_319_4477)"/>
<path fill-rule="evenodd" clip-rule="evenodd" d="M7.00066 2.83325C5.73326 2.83325 5.57434 2.83862 5.07659 2.86133C4.57988 2.88399 4.24064 2.96289 3.94381 3.07826C3.63693 3.1975 3.37668 3.35707 3.11723 3.6165C2.8578 3.87595 2.69823 4.1362 2.57899 4.44307C2.46362 4.73991 2.38472 5.07914 2.36207 5.57586C2.33936 6.07361 2.33398 6.23253 2.33398 7.49993C2.33398 8.76731 2.33936 8.92623 2.36207 9.42398C2.38472 9.92069 2.46362 10.2599 2.57899 10.5568C2.69823 10.8636 2.8578 11.1239 3.11723 11.3833C3.37668 11.6428 3.63693 11.8023 3.94381 11.9216C4.24064 12.0369 4.57988 12.1158 5.07659 12.1385C5.57434 12.1612 5.73326 12.1666 7.00066 12.1666C8.26804 12.1666 8.42696 12.1612 8.92471 12.1385C9.42142 12.1158 9.76066 12.0369 10.0575 11.9216C10.3644 11.8023 10.6246 11.6428 10.8841 11.3833C11.1435 11.1239 11.3031 10.8636 11.4223 10.5568C11.5377 10.2599 11.6166 9.92069 11.6392 9.42398C11.6619 8.92623 11.6673 8.76731 11.6673 7.49993C11.6673 6.23253 11.6619 6.07361 11.6392 5.57586C11.6166 5.07914 11.5377 4.73991 11.4223 4.44307C11.3031 4.1362 11.1435 3.87595 10.8841 3.6165C10.6246 3.35707 10.3644 3.1975 10.0575 3.07826C9.76066 2.96289 9.42142 2.88399 8.92471 2.86133C8.42696 2.83862 8.26804 2.83325 7.00066 2.83325ZM7.00066 3.67409C8.2467 3.67409 8.3943 3.67885 8.88638 3.7013C9.34138 3.72205 9.58848 3.79807 9.75292 3.86198C9.97075 3.94664 10.1262 4.04776 10.2895 4.21108C10.4528 4.37437 10.5539 4.52982 10.6386 4.74765C10.7025 4.91209 10.7785 5.15919 10.7993 5.61418C10.8217 6.10627 10.8265 6.25387 10.8265 7.49993C10.8265 8.74597 10.8217 8.89357 10.7993 9.38565C10.7785 9.84065 10.7025 10.0877 10.6386 10.2522C10.5539 10.47 10.4528 10.6255 10.2895 10.7888C10.1262 10.9521 9.97075 11.0532 9.75292 11.1379C9.58848 11.2018 9.34138 11.2778 8.88638 11.2985C8.39438 11.321 8.24679 11.3257 7.00066 11.3257C5.75451 11.3257 5.60694 11.321 5.11492 11.2985C4.65992 11.2778 4.41283 11.2018 4.24838 11.1379C4.03056 11.0532 3.8751 10.9521 3.71181 10.7888C3.54852 10.6255 3.44737 10.47 3.36272 10.2522C3.29881 10.0877 3.22278 9.84065 3.20204 9.38565C3.17958 8.89357 3.17482 8.74597 3.17482 7.49993C3.17482 6.25387 3.17958 6.10627 3.20204 5.61418C3.22278 5.15919 3.29881 4.91209 3.36272 4.74765C3.44737 4.52982 3.5485 4.37437 3.71181 4.21108C3.8751 4.04776 4.03056 3.94664 4.24838 3.86198C4.41283 3.79807 4.65992 3.72205 5.11492 3.7013C5.607 3.67885 5.7546 3.67409 7.00066 3.67409Z" fill="white"/>
<path fill-rule="evenodd" clip-rule="evenodd" d="M6.99992 9.05547C6.1408 9.05547 5.44435 8.35902 5.44435 7.49992C5.44435 6.6408 6.1408 5.94435 6.99992 5.94435C7.85902 5.94435 8.55547 6.6408 8.55547 7.49992C8.55547 8.35902 7.85902 9.05547 6.99992 9.05547ZM6.99992 5.10352C5.67641 5.10352 4.60352 6.17641 4.60352 7.49992C4.60352 8.82341 5.67641 9.89631 6.99992 9.89631C8.32341 9.89631 9.39631 8.82341 9.39631 7.49992C9.39631 6.17641 8.32341 5.10352 6.99992 5.10352Z" fill="white"/>
<path fill-rule="evenodd" clip-rule="evenodd" d="M10.0516 5.00874C10.0516 5.31802 9.80092 5.56873 9.49163 5.56873C9.18237 5.56873 8.93164 5.31802 8.93164 5.00874C8.93164 4.69946 9.18237 4.44873 9.49163 4.44873C9.80092 4.44873 10.0516 4.69946 10.0516 5.00874Z" fill="white"/>
<defs>
<linearGradient id="paint0_linear_319_4477" x1="7" y1="21.5" x2="21" y2="7.5" gradientUnits="userSpaceOnUse">
<stop stop-color="#FFD522"/>
<stop offset="0.497382" stop-color="#F1000B"/>
<stop offset="1" stop-color="#B900B3"/>
</linearGradient>
</defs>
</svg>
