<svg width="18" height="18" viewBox="0 0 18 18" fill="none" xmlns="http://www.w3.org/2000/svg">
<circle cx="9" cy="9" r="9" fill="#51607A"/>
<path d="M8.52229 4.54591C8.66748 4.07607 9.33252 4.07607 9.47771 4.54591L10.3075 7.23121C10.3723 7.44072 10.5659 7.58359 10.7852 7.58359H13.5219C14.0001 7.58359 14.2054 8.19058 13.8254 8.48092L11.5689 10.2047C11.4024 10.3319 11.3329 10.5494 11.3948 10.7496L12.2463 13.5054C12.3901 13.9705 11.852 14.3459 11.4651 14.0504L9.30353 12.3991C9.12433 12.2622 8.87567 12.2622 8.69647 12.3991L6.53489 14.0504C6.14805 14.3459 5.60992 13.9705 5.75365 13.5054L6.60523 10.7496C6.6671 10.5494 6.59757 10.3319 6.43105 10.2047L4.17462 8.48092C3.79456 8.19058 3.99988 7.58359 4.47815 7.58359H7.21477C7.43405 7.58359 7.62774 7.44072 7.69248 7.23121L8.52229 4.54591Z" fill="white"/>
</svg>
