<svg width="14" height="12" viewBox="0 0 14 12" fill="none" xmlns="http://www.w3.org/2000/svg">
<path fill-rule="evenodd" clip-rule="evenodd" d="M6.99292 0.0367008C7.40055 3.86117 5.0644 5.4559 4.40234 5.82714C4.40782 5.86663 4.41055 5.90874 4.41055 5.95086V11.407L5.49934 11.9834H11.2248C11.2357 11.9834 11.2494 11.9834 11.2603 11.986C12.5789 12.1598 12.6308 10.6595 12.6308 10.4727C12.6226 10.3779 12.6773 10.2832 12.773 10.2437C13.5992 9.9015 13.249 8.8277 13.2162 8.73558C13.1725 8.62766 13.2244 8.50395 13.3339 8.45131C14.4062 7.9512 13.7305 7.05112 13.643 6.93795C13.5719 6.86425 13.5609 6.75107 13.6184 6.66157C15.5606 3.79529 9.49305 4.50333 9.10486 4.55072C9.07477 4.55599 9.04194 4.55862 9.00911 4.55072C8.88053 4.52703 8.79846 4.40859 8.82309 4.28487C9.72859 -0.129032 7.64125 -0.0815424 6.98757 0.0317252L6.99292 0.0367008Z" fill="#1484CD"/>
<path fill-rule="evenodd" clip-rule="evenodd" d="M4.02135 11.4727V5.95084C4.02135 5.81923 3.96664 5.70078 3.87636 5.61656C3.78608 5.5297 3.66297 5.47705 3.52892 5.47705H0.492427C0.355641 5.47705 0.232535 5.52969 0.144993 5.61656C0.0547159 5.70342 0 5.82186 0 5.95084V11.4727C0 11.6043 0.0547126 11.7228 0.144993 11.807C0.23527 11.8939 0.358375 11.9465 0.492427 11.9465H3.52892C3.66571 11.9465 3.78881 11.8939 3.87636 11.807C3.95022 11.7359 3.99946 11.6438 4.01588 11.5411C4.01588 11.5254 4.01588 11.5069 4.02135 11.4911V11.4727H4.02135Z" fill="#1484CD"/>
</svg>
