<svg width="19" height="19" viewBox="0 0 19 19" fill="none" xmlns="http://www.w3.org/2000/svg">
<path d="M15.7444 3.24943C14.078 1.58352 11.3765 1.58352 9.7106 3.24943L7.3299 5.62913C7.51839 5.6086 7.70879 5.59978 7.90019 5.59978C8.50262 5.59978 9.08854 5.69554 9.6432 5.88002L10.9923 4.53153C11.4556 4.06772 12.0718 3.81281 12.727 3.81281C13.3824 3.81281 13.9985 4.06772 14.4618 4.53153C14.9252 4.99434 15.18 5.6096 15.18 6.26572C15.18 6.92095 14.9252 7.53709 14.4618 7.9999L11.8224 10.6393C11.359 11.1034 10.7428 11.3581 10.0876 11.3581C9.43138 11.3581 8.81624 11.1034 8.35243 10.6395C8.12688 10.4149 7.9511 10.1532 7.83002 9.86803C7.52926 9.88466 7.24801 10.0097 7.03316 10.2244L6.33008 10.9284C6.52248 11.2847 6.76946 11.6206 7.07022 11.9225C8.73612 13.5885 11.438 13.5885 13.1043 11.9225L15.7441 9.28214C17.4095 7.61635 17.4095 4.91546 15.7442 3.24952L15.7444 3.24943Z" fill="#1484CD"/>
<path d="M10.1216 14.3992C9.51817 14.3992 8.92645 14.3015 8.35908 14.1091L7.00076 15.4675C6.53795 15.9313 5.92177 16.1862 5.26657 16.1862C4.61134 16.1862 3.99619 15.9314 3.53238 15.4675C3.06857 15.0045 2.81367 14.3885 2.81367 13.7333C2.81367 13.078 3.06857 12.4618 3.53238 11.9981L6.17179 9.35867C6.6356 8.89586 7.25078 8.64095 7.90598 8.64095C8.56221 8.64095 9.17736 8.89586 9.64062 9.35867C9.86628 9.58422 10.0424 9.84593 10.164 10.1311C10.4658 10.1154 10.7475 9.98944 10.9623 9.77471L11.6644 9.07162C11.472 8.71415 11.2245 8.37834 10.9233 8.07658C9.25735 6.41067 6.55543 6.41067 4.8895 8.07658L2.25009 10.717C0.583302 12.383 0.583302 15.0837 2.25009 16.7507C3.916 18.4167 6.61678 18.4167 8.28271 16.7507L10.6594 14.374C10.4822 14.3905 10.3031 14.3994 10.1224 14.3994L10.1216 14.3992Z" fill="#1484CD"/>
</svg>
