<svg width="18" height="18" viewBox="0 0 18 18" fill="none" xmlns="http://www.w3.org/2000/svg">
<path d="M10.9077 3.55855C10.9117 3.82732 11.069 4.06795 11.3078 4.17096C13.4452 5.14855 14.7973 7.37741 14.7249 9.80358C14.6736 13.0908 12.0684 15.7124 8.90616 15.6591C5.74387 15.6057 3.22192 12.8977 3.27324 9.61045C3.27625 7.25425 4.61606 5.12168 6.69027 4.17161C6.92923 4.06798 7.08636 3.82698 7.09045 3.5579C7.09101 3.19265 6.8066 2.89611 6.45524 2.89552C6.37338 2.89539 6.29223 2.91167 6.21631 2.94351C2.67021 4.54163 1.04184 8.82543 2.57925 12.5116C4.11666 16.1979 8.23761 17.8905 11.7837 16.2924C15.3298 14.6943 16.9581 10.4105 15.4208 6.72427C14.714 5.02979 13.4138 3.67815 11.7837 2.94351C11.4583 2.8058 11.0871 2.96843 10.9546 3.3067C10.9233 3.38669 10.9073 3.47221 10.9077 3.55855Z" fill="#51607A" stroke="#51607A" stroke-width="0.7"/>
<path d="M9 1C9.55229 1 10 1.33578 10 1.74999V6.25001C10 6.66422 9.55229 7 9 7C8.44771 7 8 6.66422 8 6.25001V1.74999C7.99995 1.33578 8.44771 1 9 1Z" fill="#51607A"/>
</svg>
