<svg width="18" height="18" viewBox="0 0 18 18" fill="none" xmlns="http://www.w3.org/2000/svg">
<g clip-path="url(#clip0_319_6073)">
<path d="M17.445 12.1501L15.495 5.12188C15.0786 3.61844 14.1713 2.29748 12.9175 1.36924C11.6637 0.441003 10.1354 -0.0411779 8.57589 -0.000558164C7.01639 0.0400616 5.51528 0.601148 4.31148 1.5934C3.10768 2.58565 2.27036 3.95205 1.93279 5.47513L0.424541 12.2626C0.351561 12.5915 0.353341 12.9325 0.42975 13.2605C0.506159 13.5886 0.655248 13.8953 0.866017 14.158C1.07679 14.4208 1.34386 14.6328 1.64752 14.7786C1.95119 14.9243 2.28371 15 2.62054 15.0001H5.32579C5.49793 15.8478 5.95784 16.61 6.6276 17.1574C7.29736 17.7048 8.13577 18.0039 9.00079 18.0039C9.86581 18.0039 10.7042 17.7048 11.374 17.1574C12.0437 16.61 12.5037 15.8478 12.6758 15.0001H15.2783C15.6249 15 15.9667 14.9197 16.2772 14.7657C16.5877 14.6117 16.8584 14.388 17.0682 14.1122C17.278 13.8363 17.4212 13.5157 17.4867 13.1754C17.5522 12.835 17.5375 12.4842 17.445 12.1501ZM9.00079 16.5001C8.5371 16.4982 8.08532 16.3531 7.70727 16.0846C7.32921 15.8161 7.04335 15.4373 6.88879 15.0001C8.53836 15.0001 9.46322 15.0001 11.1128 15.0001C10.9582 15.4373 10.6724 15.8161 10.2943 16.0846C9.91626 16.3531 9.46449 16.4982 9.00079 16.5001ZM15.8745 13.2039C15.8046 13.2966 15.7139 13.3717 15.6097 13.4232C15.5055 13.4746 15.3907 13.501 15.2745 13.5001H2.62054C2.50824 13.5001 2.39737 13.4749 2.29613 13.4263C2.19488 13.3777 2.10584 13.307 2.03558 13.2194C1.96532 13.1317 1.91563 13.0295 1.89018 12.9201C1.86473 12.8107 1.86417 12.697 1.88854 12.5874L3.39679 5.79988C3.66256 4.60453 4.32027 3.53233 5.26538 2.75371C6.21049 1.9751 7.38876 1.53476 8.61287 1.50269C9.83698 1.47062 11.0367 1.84867 12.0213 2.57673C13.0059 3.30479 13.7188 4.34109 14.0468 5.52088L15.9968 12.5491C16.0286 12.6603 16.0342 12.7773 16.0129 12.8909C15.9917 13.0046 15.9443 13.1117 15.8745 13.2039Z" fill="#121212" fill-opacity="0.3"/>
<path d="M15.8745 13.2039C15.8046 13.2966 15.7139 13.3717 15.6097 13.4232C15.5055 13.4746 15.3907 13.501 15.2745 13.5001H2.62054C2.50824 13.5001 2.39737 13.4749 2.29613 13.4263C2.19488 13.3777 2.10584 13.307 2.03558 13.2194C1.96532 13.1317 1.91563 13.0295 1.89018 12.9201C1.86473 12.8107 1.86417 12.697 1.88854 12.5874L3.39679 5.79988C3.66256 4.60453 4.32027 3.53233 5.26538 2.75371C6.21049 1.9751 7.38876 1.53476 8.61287 1.50269C9.83698 1.47062 11.0367 1.84867 12.0213 2.57673C13.0059 3.30479 13.7188 4.34109 14.0468 5.52088L15.9968 12.5491C16.0286 12.6603 16.0342 12.7773 16.0129 12.8909C15.9917 13.0046 15.9443 13.1117 15.8745 13.2039Z" fill="white" fill-opacity="0.8"/>
<path d="M9.00079 16.5001C8.5371 16.4982 8.08532 16.3531 7.70727 16.0846C7.32921 15.8161 7.04335 15.4373 6.88879 15.0001H11.1128C10.9582 15.4373 10.6724 15.8161 10.2943 16.0846C9.91626 16.3531 9.46449 16.4982 9.00079 16.5001Z" fill="#FEFEFE"/>
<ellipse cx="13.8004" cy="2.4" rx="2.4" ry="2.4" fill="#FF0000"/>
</g>
<defs>
<clipPath id="clip0_319_6073">
<rect width="18" height="18" fill="white"/>
</clipPath>
</defs>
</svg>
