<svg width="15" height="20" viewBox="0 0 15 20" fill="none" xmlns="http://www.w3.org/2000/svg">
<path d="M14.7323 5.64916H10.1751C9.62507 5.64916 9.16797 5.19925 9.16797 4.64198V0.0917969C9.28229 0.134686 9.38225 0.206115 9.46803 0.291731L14.5252 5.35579C14.6108 5.44173 14.6822 5.5417 14.7323 5.64884L14.7323 5.64916Z" fill="#51607A"/>
<path d="M10.1749 6.72144C9.02923 6.72144 8.09633 5.78859 8.09633 4.64284V0H1.00575C0.449958 0 0 0.449917 0 1.00575V18.9942C0 19.55 0.449917 20 1.00575 20H13.8143C14.3707 20 14.8215 19.5493 14.8215 18.9928V6.72144H10.1749ZM5.43414 12.5977C5.68558 12.3463 6.09279 12.3463 6.3434 12.5977L6.76769 13.0212V8.32817C6.76769 7.9731 7.05547 7.68532 7.41054 7.68532C7.76561 7.68532 8.0534 7.9731 8.0534 8.32817V13.0212L8.47703 12.5976C8.72846 12.3461 9.13568 12.3461 9.38629 12.5976C9.63772 12.8482 9.63772 13.2554 9.38629 13.5062L7.86495 15.0276C7.74426 15.1483 7.58067 15.2162 7.40993 15.2162C7.23919 15.2162 7.07559 15.1483 6.95491 15.0276L5.43357 13.5062C5.18341 13.2556 5.18341 12.8484 5.43421 12.5977H5.43414ZM9.24343 17.2794H5.577C5.22193 17.2794 4.93414 16.9916 4.93414 16.6365C4.93414 16.2814 5.22193 15.9937 5.577 15.9937H9.24343C9.5985 15.9937 9.88629 16.2814 9.88629 16.6365C9.88629 16.9914 9.59834 17.2794 9.24343 17.2794Z" fill="#51607A"/>
</svg>
