<svg width="18" height="18" viewBox="0 0 18 18" fill="none" xmlns="http://www.w3.org/2000/svg">
<path d="M4.227 12.5438L5.45616 13.773L1.28896 17.94L0 18L0.060016 16.711L4.227 12.5438ZM17.5674 5.25909L12.8009 0.462453C12.2614 -0.0770504 11.4217 -0.1672 10.8222 0.312518C10.1627 0.852021 10.1328 1.84136 10.7323 2.44109L10.8521 2.56091L4.58666 7.11767L10.8821 13.4131L15.3789 7.23758C15.4088 7.17757 15.4688 7.17757 15.5288 7.23758C16.0683 7.77709 16.9079 7.86723 17.5074 7.38752C18.1369 6.81788 18.1667 5.82859 17.5672 5.25895L17.5674 5.25909ZM3.77732 7.17771C3.20768 6.60806 2.30833 6.60806 1.7389 7.17771C1.16926 7.74735 1.16926 8.6467 1.7389 9.21613L8.78381 16.261C9.35346 16.8307 10.2528 16.8307 10.8222 16.261C11.3919 15.6914 11.3919 14.792 10.8222 14.2226L3.77732 7.17771Z" fill="#4E4E4E"/>
</svg>
