<svg width="9" height="12" viewBox="0 0 9 12" fill="none" xmlns="http://www.w3.org/2000/svg">
<path d="M7.84259 4.85908H7.47129L7.47117 2.76227C7.47117 1.23901 6.13839 0 4.50006 0C2.86136 0 1.52846 1.23913 1.52846 2.76227V4.85908H1.15716C0.518149 4.85908 0 5.3405 0 5.93473V10.9244C0 11.5184 0.518025 12 1.15716 12H7.84272C8.48173 12 9 11.5185 9 10.9244V5.93473C9 5.34062 8.48173 4.85917 7.84272 4.85917L7.84259 4.85908ZM2.56828 2.76227C2.56828 1.772 3.43502 0.966346 4.50031 0.966346C5.56526 0.966346 6.43175 1.77203 6.43175 2.76227V4.85908H2.56837L2.56828 2.76227ZM5.09219 8.37489V9.71782C5.09219 10.0217 4.82725 10.268 4.50006 10.268C4.17313 10.268 3.90818 10.0217 3.90818 9.71782V8.37489C3.63091 8.19906 3.449 7.90302 3.449 7.56766C3.449 7.0278 3.91965 6.59033 4.50006 6.59033C5.08059 6.59033 5.55112 7.02794 5.55112 7.56766C5.55112 7.90291 5.36921 8.19873 5.09219 8.37489Z" fill="#6877EC"/>
</svg>
