<svg width="24" height="24" viewBox="0 0 24 24" fill="none" xmlns="http://www.w3.org/2000/svg">
<path d="M8.54992 5.35352H4.12262C3.65117 5.35352 3.26953 5.75918 3.26953 6.2607V12.9862C3.26953 13.4875 3.65101 13.8934 4.12262 13.8934H8.54992C9.02137 13.8934 9.40301 13.4877 9.40301 12.9862V6.2607C9.40301 5.75918 9.02153 5.35352 8.54992 5.35352Z" fill="#83869D"/>
<path d="M4.26562 20.53C4.26562 21.3415 4.88475 21.9999 5.64786 21.9999C6.41097 21.9999 7.0301 21.3415 7.0301 20.53V17.0544C7.0301 16.8323 7.13086 16.6219 7.3037 16.4917L7.73574 16.1664C7.90858 16.0361 8.00933 15.8257 8.00933 15.6037L8.00917 14.6621H4.26565L4.26562 20.53Z" fill="#83869D"/>
<path d="M1 9.62459C1 10.8228 1.62625 11.8639 2.54777 12.4037V6.8457C1.62273 7.38548 1 8.42661 1 9.62477V9.62459Z" fill="#83869D"/>
<path d="M21.3125 7.14857V12.1016C22.2915 11.7609 23.0007 10.781 23.0007 9.62493C23.0007 8.46909 22.2952 7.48909 21.3125 7.14844V7.14857Z" fill="#83869D"/>
<path d="M10.1209 6.26034V12.9858C10.1209 13.0701 10.1101 13.1543 10.0957 13.2385C14.0877 13.5602 17.7374 14.2758 20.5921 17.2501V2C17.7376 4.97802 14.0911 5.68996 10.0957 6.01157C10.11 6.09192 10.1209 6.17616 10.1209 6.2604V6.26034Z" fill="#83869D"/>
</svg>
