<svg width="19" height="18" viewBox="0 0 19 18" fill="none" xmlns="http://www.w3.org/2000/svg">
<path d="M17.7502 16.4825L14.4126 13.17C15.7082 11.5537 16.3356 9.50215 16.1658 7.43721C15.996 5.37227 15.0421 3.45088 13.5 2.06813C11.9579 0.685379 9.94497 -0.0536394 7.87506 0.00303437C5.80515 0.0597081 3.83561 0.907766 2.37142 2.37283C0.907227 3.83789 0.0596726 5.8086 0.00303256 7.87974C-0.0536075 9.95088 0.684972 11.965 2.0669 13.508C3.44883 15.051 5.36908 16.0056 7.43279 16.1754C9.4965 16.3453 11.5468 15.7175 13.1622 14.4212L16.4727 17.7337C16.5564 17.8181 16.6559 17.8851 16.7655 17.9308C16.8751 17.9765 16.9927 18 17.1115 18C17.2302 18 17.3478 17.9765 17.4574 17.9308C17.5671 17.8851 17.6666 17.8181 17.7502 17.7337C17.9123 17.5659 18.003 17.3416 18.003 17.1081C18.003 16.8747 17.9123 16.6504 17.7502 16.4825ZM8.11533 14.4212C6.86984 14.4212 5.65232 14.0516 4.61674 13.3593C3.58115 12.6669 2.77401 11.6828 2.29738 10.5315C1.82076 9.38009 1.69605 8.11316 1.93903 6.89088C2.18201 5.6686 2.78177 4.54586 3.66247 3.66464C4.54316 2.78343 5.66523 2.18331 6.88679 1.94018C8.10834 1.69706 9.37452 1.82184 10.5252 2.29875C11.6759 2.77566 12.6594 3.58328 13.3513 4.61948C14.0433 5.65568 14.4126 6.87392 14.4126 8.12015C14.4126 9.79129 13.7492 11.394 12.5682 12.5757C11.3872 13.7573 9.78547 14.4212 8.11533 14.4212Z" fill="#181B1A"/>
</svg>
