<svg width="14" height="14" viewBox="0 0 14 14" fill="none" xmlns="http://www.w3.org/2000/svg">
<path fill-rule="evenodd" clip-rule="evenodd" d="M12.9315 4.99515L11.3182 3.38201L9.00481 1.06864C8.93783 1.00166 8.837 0.981529 8.74946 1.01788C8.66191 1.05415 8.60474 1.13953 8.60474 1.23436V3.51108C6.51544 3.88582 4.61925 4.78254 3.24767 6.04813C2.53724 6.70347 1.98297 7.43855 1.60017 8.23271C1.20182 9.05898 1 9.92828 1 10.8166C1 11.1011 1.02108 11.3876 1.06282 11.6686C1.07982 11.7826 1.17709 11.8674 1.2924 11.8685H1.29457C1.40901 11.8685 1.5068 11.7858 1.52571 11.6728C1.97567 8.98939 4.99765 6.9519 8.60486 6.86705V9.08737C8.60486 9.1822 8.66204 9.26758 8.74959 9.30385C8.83713 9.34012 8.93796 9.32008 9.00494 9.25309L12.9313 5.32669C13.0229 5.23515 13.0229 5.08669 12.9315 4.99515ZM9.07351 6.62999V8.52174L12.4341 5.16081L9.07341 1.80015V3.70891C9.07341 3.82387 8.99011 3.92183 8.87671 3.94022C4.82859 4.59903 1.82734 7.2087 1.49858 10.2597C1.49858 10.2597 2.68588 8.53153 3.66111 7.87906C5.09111 6.92248 6.93006 6.39564 8.83915 6.39564C8.96852 6.39564 9.07351 6.50054 9.07351 6.62999Z" fill="#AFB0B0"/>
<path d="M9.07351 8.52174V6.62999C9.07351 6.50054 8.96852 6.39564 8.83915 6.39564C6.93006 6.39564 5.09111 6.92248 3.66111 7.87906C2.68588 8.53153 1.49858 10.2597 1.49858 10.2597C1.82734 7.2087 4.82859 4.59903 8.87671 3.94022C8.99011 3.92183 9.07341 3.82387 9.07341 3.70891V1.80015L12.4341 5.16081L9.07351 8.52174Z" fill="#AFB0B0"/>
<path fill-rule="evenodd" clip-rule="evenodd" d="M12.9315 4.99515L11.3182 3.38201L9.00481 1.06864C8.93783 1.00166 8.837 0.981529 8.74946 1.01788C8.66191 1.05415 8.60474 1.13953 8.60474 1.23436V3.51108C6.51544 3.88582 4.61925 4.78254 3.24767 6.04813C2.53724 6.70347 1.98297 7.43855 1.60017 8.23271C1.20182 9.05898 1 9.92828 1 10.8166C1 11.1011 1.02108 11.3876 1.06282 11.6686C1.07982 11.7826 1.17709 11.8674 1.2924 11.8685H1.29457C1.40901 11.8685 1.5068 11.7858 1.52571 11.6728C1.97567 8.98939 4.99765 6.9519 8.60486 6.86705V9.08737C8.60486 9.1822 8.66204 9.26758 8.74959 9.30385C8.83713 9.34012 8.93796 9.32008 9.00494 9.25309L12.9313 5.32669C13.0229 5.23515 13.0229 5.08669 12.9315 4.99515ZM9.07351 6.62999V8.52174L12.4341 5.16081L9.07341 1.80015V3.70891C9.07341 3.82387 8.99011 3.92183 8.87671 3.94022C4.82859 4.59903 1.82734 7.2087 1.49858 10.2597C1.49858 10.2597 2.68588 8.53153 3.66111 7.87906C5.09111 6.92248 6.93006 6.39564 8.83915 6.39564C8.96852 6.39564 9.07351 6.50054 9.07351 6.62999Z" stroke="#AFB0B0" stroke-width="0.7"/>
<path d="M9.07351 8.52174V6.62999C9.07351 6.50054 8.96852 6.39564 8.83915 6.39564C6.93006 6.39564 5.09111 6.92248 3.66111 7.87906C2.68588 8.53153 1.49858 10.2597 1.49858 10.2597C1.82734 7.2087 4.82859 4.59903 8.87671 3.94022C8.99011 3.92183 9.07341 3.82387 9.07341 3.70891V1.80015L12.4341 5.16081L9.07351 8.52174Z" stroke="#AFB0B0" stroke-width="0.7"/>
</svg>
