<svg width="18" height="18" viewBox="0 0 18 18" fill="none" xmlns="http://www.w3.org/2000/svg">
<path d="M0.560654 4.937e-06C0.411374 0.000507142 0.268623 0.0603949 0.16355 0.166236C0.058465 0.272202 -0.000295508 0.415455 0.000334458 0.564625V7.3869C0.000962207 7.5353 0.0600977 7.67743 0.165058 7.78239C0.270018 7.88736 0.412143 7.94649 0.560683 7.94712H7.38714C7.53554 7.94649 7.67766 7.88736 7.78263 7.78239C7.8876 7.67743 7.94685 7.53531 7.94748 7.3869V0.564625C7.94798 0.415471 7.88923 0.272215 7.78427 0.166236C7.67918 0.0603949 7.5363 0.000509553 7.38716 4.937e-06H0.560654ZM10.6125 4.937e-06C10.4626 -0.000622811 10.3186 0.0586368 10.2126 0.164728C10.1065 0.270694 10.0473 0.414699 10.0478 0.564596V7.38687C10.0484 7.53602 10.1083 7.67878 10.2141 7.78388C10.3201 7.88896 10.4633 7.94772 10.6125 7.94709H17.4348C17.5839 7.94772 17.7272 7.88896 17.833 7.78388C17.939 7.67879 17.9988 7.53604 17.9994 7.38687V0.564596C18 0.414686 17.9406 0.270681 17.8347 0.164728C17.7286 0.0586368 17.5847 -0.000621815 17.4348 4.937e-06H10.6125ZM3.11459 2.83646H4.83276C4.98794 2.83646 5.11286 2.96138 5.11286 3.11656V4.8336C5.11286 4.98879 4.98794 5.11371 4.83276 5.11371H3.11459C2.95941 5.11371 2.83448 4.98879 2.83448 4.8336V3.11656C2.83448 2.96138 2.95941 2.83646 3.11459 2.83646ZM13.1654 2.83646H14.8825C15.0377 2.83646 15.1626 2.96138 15.1626 3.11656V4.8336C15.1626 4.98879 15.0377 5.11371 14.8825 5.11371L13.1654 5.11383C13.0103 5.11383 12.8853 4.98891 12.8853 4.83373V3.11669C12.8853 2.96151 13.0103 2.83658 13.1654 2.83658V2.83646ZM10.5563 10.0518C10.556 10.0522 10.5556 10.0526 10.5552 10.0529C10.4161 10.0666 10.2872 10.1315 10.1932 10.2351C10.0995 10.3387 10.0476 10.4734 10.0476 10.6132V14.0266C10.0482 14.1757 10.1081 14.3185 10.214 14.4236C10.3199 14.5286 10.4632 14.5874 10.6124 14.5868H13.461V17.4387C13.4612 17.5873 13.5204 17.7297 13.6253 17.8349C13.7303 17.9401 13.8727 17.9995 14.0212 18H17.4346C17.5839 18.0006 17.7274 17.9417 17.8332 17.8364C17.9392 17.7312 17.9989 17.5881 17.9992 17.4387V14.0266C17.9998 13.8765 17.9404 13.7326 17.8344 13.6266C17.7284 13.5206 17.5845 13.4613 17.4346 13.4618H14.5859V10.6132C14.5853 10.464 14.5256 10.3213 14.4196 10.2162C14.3137 10.1111 14.1704 10.0523 14.0212 10.053H10.6123C10.5936 10.0517 10.575 10.0513 10.5563 10.0518L10.5563 10.0518ZM0.506464 10.0529C0.367605 10.0669 0.23879 10.1319 0.145262 10.2355C0.0515996 10.339 -0.000125123 10.4737 2.27298e-07 10.6132V17.4386C0.000251314 17.5873 0.0593873 17.7297 0.164347 17.8349C0.269307 17.9401 0.411683 17.9995 0.560326 18H7.38678C7.53543 17.9995 7.67768 17.9401 7.78263 17.8349C7.88759 17.7297 7.94673 17.5873 7.9471 17.4386V10.6132C7.94647 10.4648 7.88721 10.3226 7.78225 10.2177C7.67729 10.1127 7.53517 10.0536 7.38676 10.0529H0.560304C0.54235 10.0521 0.524395 10.0521 0.506441 10.0529L0.506464 10.0529ZM3.11456 12.8861H4.83272C4.9879 12.8861 5.11283 13.011 5.11283 13.1662V14.8833C5.11283 15.0385 4.9879 15.1634 4.83272 15.1634H3.11456C2.95937 15.1634 2.83445 15.0385 2.83445 14.8833V13.1662C2.83445 13.011 2.95937 12.8861 3.11456 12.8861Z" fill="#51607A"/>
</svg>
