<svg width="18" height="18" viewBox="0 0 18 18" fill="none" xmlns="http://www.w3.org/2000/svg">
<path d="M17.9595 6.78762C17.9124 6.63537 17.8256 6.49993 17.7089 6.39666C17.5923 6.29339 17.4504 6.22646 17.2992 6.20334L12.0716 5.40722L9.73688 0.439789C9.58377 0.167326 9.30465 0 9.00305 0C8.70147 0 8.42223 0.167326 8.26922 0.439789L5.92945 5.40722L0.701825 6.20334H0.701962C0.499267 6.23393 0.314782 6.34294 0.18509 6.50912C0.0553921 6.67515 -0.010211 6.88629 0.00129262 7.10072C0.0126602 7.31501 0.100449 7.51709 0.246995 7.66703L4.02905 11.5336L3.13814 16.9934C3.10267 17.2051 3.14417 17.4232 3.25469 17.6044C3.36521 17.7855 3.53655 17.9165 3.73485 17.9715C3.93303 18.0265 4.14381 18.0014 4.32514 17.9011L9.00055 15.3195L13.676 17.9011C13.857 18.0009 14.0671 18.0259 14.2649 17.9713C14.4628 17.9168 14.6338 17.7863 14.7445 17.6059C14.8553 17.4255 14.8975 17.2083 14.863 16.9968L13.9704 11.5371L17.7542 7.66681C17.8633 7.55493 17.9402 7.41317 17.9765 7.25776C18.0128 7.10236 18.0069 6.93949 17.9595 6.78738L17.9595 6.78762Z" fill="#4E4E4E"/>
</svg>
