<svg width="14" height="14" viewBox="0 0 14 14" fill="none" xmlns="http://www.w3.org/2000/svg">
<path d="M7.53098 1.51091C7.73799 1.53796 7.95356 1.61851 8.12439 1.80166C8.44006 2.14009 8.77873 3.01306 8.33328 5.18439L8.3327 5.18727C8.25209 5.59234 8.52213 5.96262 8.90625 6.04008C9.01928 6.06468 9.11702 6.05512 9.17586 6.04578C9.40993 6.01759 10.937 5.84574 12.1698 6.00918C12.4789 6.05016 12.7528 6.1103 12.9747 6.19129C13.2007 6.27378 13.3396 6.36591 13.4151 6.45C13.4774 6.51933 13.5081 6.59326 13.4994 6.70842C13.4892 6.84394 13.4205 7.06229 13.2044 7.3811L13.2043 7.38101L13.1976 7.39147C13.0251 7.66027 13.0449 8.01279 13.2577 8.25731C13.3036 8.31909 13.4059 8.4721 13.4291 8.62461C13.4394 8.69249 13.4306 8.73915 13.4088 8.77876C13.3862 8.81993 13.3204 8.90587 13.1225 8.99816L13.1225 8.99813L13.1171 9.00074C12.7956 9.15538 12.6066 9.5389 12.7468 9.9079L12.7495 9.91642C12.7522 9.92463 12.7557 9.93602 12.7597 9.95019C12.7679 9.97866 12.7779 10.0173 12.7873 10.063C12.8066 10.1566 12.821 10.2684 12.8171 10.3779C12.8093 10.5928 12.7449 10.7139 12.5824 10.7814C12.5822 10.7815 12.582 10.7816 12.5817 10.7817L7.53098 1.51091ZM7.53098 1.51091C7.69094 4.86248 5.81416 6.51069 4.91055 7.10268V12.1059L5.62354 12.4834H11.2248L11.2257 12.4834C11.2309 12.4834 11.249 12.4834 11.2692 12.4844C11.2836 12.4852 11.3076 12.4869 11.3372 12.4918C11.5608 12.5192 11.6881 12.4738 11.7654 12.4253C11.8515 12.3715 11.9264 12.2814 11.9879 12.1512C12.111 11.8902 12.1292 11.5781 12.1307 11.4856L7.53098 1.51091Z" fill="#AFB0B0" stroke="#AFB0B0"/>
<path d="M3.52135 11.9722L3.52135 12.445C3.52135 12.445 3.52135 12.445 3.52135 12.445C3.52131 12.4453 3.52126 12.4457 3.52122 12.446H0.5V6.97656H3.52135L3.52135 11.9722Z" fill="#AFB0B0" stroke="#AFB0B0"/>
</svg>
