<svg width="14" height="12" viewBox="0 0 14 12" fill="none" xmlns="http://www.w3.org/2000/svg">
<path d="M7.53098 11.4891C7.73799 11.462 7.95356 11.3815 8.12439 11.1983C8.44006 10.8599 8.77873 9.98694 8.33328 7.81561L8.3327 7.81273C8.25209 7.40766 8.52213 7.03738 8.90625 6.95992C9.01928 6.93532 9.11702 6.94488 9.17586 6.95422C9.40993 6.98241 10.937 7.15426 12.1698 6.99082C12.4789 6.94984 12.7528 6.8897 12.9747 6.80871C13.2007 6.72622 13.3396 6.63409 13.4151 6.55C13.4774 6.48067 13.5081 6.40674 13.4994 6.29158C13.4892 6.15606 13.4205 5.93771 13.2044 5.6189L13.2043 5.61899L13.1976 5.60853C13.0251 5.33973 13.0449 4.98721 13.2577 4.74269C13.3036 4.68091 13.4059 4.5279 13.4291 4.37539C13.4394 4.30751 13.4306 4.26085 13.4088 4.22124C13.3862 4.18007 13.3204 4.09413 13.1225 4.00184L13.1225 4.00187L13.1171 3.99926C12.7956 3.84462 12.6066 3.4611 12.7468 3.0921L12.7495 3.08358C12.7522 3.07537 12.7557 3.06398 12.7597 3.04981C12.7679 3.02134 12.7779 2.98273 12.7873 2.93705C12.8066 2.8434 12.821 2.73162 12.8171 2.62214C12.8093 2.40722 12.7449 2.28612 12.5824 2.21857C12.5822 2.21847 12.582 2.21837 12.5817 2.21827L7.53098 11.4891ZM7.53098 11.4891C7.69094 8.13752 5.81416 6.48931 4.91055 5.89732V0.894083L5.62354 0.516603H11.2248L11.2257 0.516605C11.2309 0.516613 11.249 0.516641 11.2692 0.515562C11.2836 0.514796 11.3076 0.513118 11.3372 0.50822C11.5608 0.480837 11.6881 0.526231 11.7654 0.57466C11.8515 0.62855 11.9264 0.718611 11.9879 0.848836C12.111 1.10983 12.1292 1.42194 12.1307 1.51443L7.53098 11.4891Z" fill="#AFB0B0" stroke="#AFB0B0"/>
<path d="M3.52135 1.02778L3.52135 0.554991C3.52135 0.554989 3.52135 0.554986 3.52135 0.554984C3.52131 0.55465 3.52126 0.554317 3.52122 0.553986H0.5V6.02344H3.52135L3.52135 1.02778Z" fill="#AFB0B0" stroke="#AFB0B0"/>
</svg>
