<svg width="18" height="18" viewBox="0 0 18 18" fill="none" xmlns="http://www.w3.org/2000/svg">
<path d="M9 0C7.21997 0 5.47991 0.527841 3.99987 1.51677C2.51983 2.50571 1.36628 3.91131 0.685088 5.55585C0.00389957 7.20038 -0.17433 9.00998 0.172937 10.7558C0.520203 12.5016 1.37737 14.1053 2.63604 15.364C3.89472 16.6226 5.49836 17.4798 7.24419 17.8271C8.99002 18.1743 10.7996 17.9961 12.4442 17.3149C14.0887 16.6337 15.4943 15.4802 16.4832 14.0001C17.4722 12.5201 18 10.78 18 9C17.9974 6.61384 17.0484 4.32616 15.3611 2.63889C13.6738 0.951621 11.3862 0.00258081 9 0Z" fill="#51607A"/>
<path d="M3.05209 6.99803C3.00002 6.87132 2.98658 6.73193 3.01362 6.59764C3.04081 6.4632 3.10711 6.34004 3.20446 6.24345L5.28139 4.16653C5.45956 4.01385 5.70294 3.96193 5.92796 4.02838C6.15296 4.09498 6.32899 4.27099 6.39557 4.49598C6.46202 4.72098 6.41009 4.96438 6.25741 5.14256L5.36438 6.03916H13.0387C13.2861 6.03916 13.5147 6.17113 13.6383 6.38531C13.7619 6.59949 13.7619 6.86344 13.6383 7.07762C13.5147 7.2918 13.2861 7.42377 13.0387 7.42377H3.69255C3.55564 7.42408 3.42181 7.38375 3.30776 7.30803C3.19387 7.23215 3.10479 7.12429 3.05209 6.99803Z" fill="white"/>
<path d="M14.2188 11.0273L12.1419 13.1042C12.0164 13.2507 11.8356 13.3383 11.6429 13.3457C11.4501 13.3531 11.2629 13.2799 11.1266 13.1434C10.9902 13.0071 10.9169 12.82 10.9243 12.6271C10.9318 12.4344 11.0194 12.2536 11.1659 12.1282L12.0589 11.2316H4.38458C4.13717 11.2316 3.90863 11.0996 3.785 10.8854C3.66137 10.6712 3.66137 10.4073 3.785 10.1931C3.90863 9.97892 4.13718 9.84695 4.38458 9.84695H13.7307C13.8676 9.84664 14.0015 9.88697 14.1155 9.96269C14.2294 10.0386 14.3184 10.1464 14.3711 10.2727C14.4232 10.3994 14.4366 10.5388 14.4096 10.6731C14.3824 10.8075 14.3162 10.9307 14.2188 11.0273Z" fill="white"/>
</svg>
