<svg width="22" height="18" viewBox="0 0 22 18" fill="none" xmlns="http://www.w3.org/2000/svg">
<path d="M19.3085 4.35106C19.3216 4.54069 19.3216 4.73032 19.3216 4.9217C19.3216 10.7531 14.8823 17.4786 6.76475 17.4786V17.4751C4.36681 17.4786 2.01868 16.7917 0 15.4966C0.34868 15.5385 0.699108 15.5595 1.05041 15.5604C3.03763 15.5621 4.96804 14.8954 6.53142 13.6675C4.64295 13.6317 2.98694 12.4004 2.40843 10.6028C3.06996 10.7304 3.75159 10.7042 4.40089 10.5268C2.34201 10.1108 0.860777 8.30189 0.860777 6.20107C0.860777 6.18185 0.860777 6.1635 0.860777 6.14514C1.47424 6.48683 2.16112 6.67647 2.86372 6.69744C0.924571 5.40147 0.326833 2.82176 1.49784 0.804833C3.73848 3.56194 7.04439 5.23805 10.5932 5.41545C10.2376 3.88266 10.7234 2.27646 11.87 1.19896C13.6475 -0.471913 16.443 -0.386272 18.1139 1.39034C19.1023 1.19546 20.0496 0.832798 20.9164 0.318953C20.587 1.34052 19.8975 2.20829 18.9764 2.75971C19.8512 2.6566 20.7058 2.42239 21.5107 2.06498C20.9182 2.95284 20.1719 3.72623 19.3085 4.35106Z" fill="#9D9D9D"/>
</svg>
