<svg width="14" height="15" viewBox="0 0 14 15" fill="none" xmlns="http://www.w3.org/2000/svg">
<circle cx="7" cy="7.5" r="7" fill="#1D9BF0"/>
<path d="M10.7118 5.5961C10.7175 5.67838 10.7175 5.76065 10.7175 5.84368C10.7175 8.3737 8.79129 11.2916 5.26916 11.2916V11.2901C4.22871 11.2916 3.20987 10.9936 2.33398 10.4317C2.48527 10.4499 2.63732 10.459 2.78975 10.4594C3.65199 10.4601 4.48958 10.1708 5.16792 9.63814C4.34853 9.6226 3.63 9.08839 3.37898 8.30849C3.66602 8.36384 3.96177 8.35247 4.2435 8.2755C3.35017 8.09503 2.70747 7.31021 2.70747 6.39875C2.70747 6.39041 2.70747 6.38244 2.70747 6.37448C2.97365 6.52273 3.27168 6.605 3.57653 6.6141C2.73515 6.05183 2.47579 4.9326 2.98389 4.05754C3.95608 5.25374 5.39049 5.98093 6.93031 6.0579C6.77599 5.39288 6.98681 4.69602 7.48428 4.22854C8.25552 3.50361 9.46849 3.54077 10.1935 4.31157C10.6223 4.22702 11.0333 4.06967 11.4095 3.84674C11.2665 4.28996 10.9674 4.66645 10.5677 4.90568C10.9473 4.86095 11.3181 4.75933 11.6673 4.60427C11.4102 4.98947 11.0864 5.32502 10.7118 5.5961Z" fill="white"/>
</svg>
