<svg width="16" height="14" viewBox="0 0 16 14" fill="none" xmlns="http://www.w3.org/2000/svg">
<path d="M10.7126 3.90664L5.01459 9.64008C4.82545 9.8289 4.51933 9.8289 4.3305 9.64008C4.14169 9.45159 4.14169 9.1422 4.3305 8.9534L11.0092 2.23285C11.286 1.95312 11.7349 1.95312 12.0117 2.23285L13.5159 3.74686C13.7927 4.02365 13.7927 4.47618 13.5159 4.75624L6.83777 11.4768C5.64286 12.6779 3.70564 12.6779 2.50727 11.4768C1.31202 10.2721 1.31202 8.32206 2.50727 7.11671L8.20527 1.38327C8.52108 1.06746 8.52108 0.552999 8.20527 0.236856C7.89272 -0.0789521 7.38153 -0.0789521 7.06572 0.236856L1.36772 5.97058C-0.455907 7.80727 -0.455907 10.7861 1.36772 12.6225C3.19428 14.4592 6.15396 14.4592 7.9772 12.6225L15.1566 5.39791C15.7853 4.763 15.7853 3.73704 15.1566 3.10246L12.6495 0.582331C12.0211 -0.052579 10.9988 -0.052579 10.3703 0.582331L3.19096 7.80719C2.37367 8.62763 2.37367 9.96234 3.19096 10.7861C4.0114 11.6098 5.33662 11.6098 6.15424 10.7861L11.8522 5.05238C12.1681 4.73657 12.1681 4.22211 11.8522 3.9063C11.5361 3.5908 11.0282 3.5908 10.7124 3.90663L10.7126 3.90664Z" fill="#B6B6B6"/>
</svg>
