<svg width="21" height="15" viewBox="0 0 21 15" fill="none" xmlns="http://www.w3.org/2000/svg">
<path d="M1.25 0C0.5575 0 0 0.5575 0 1.25V13.75C0 14.4425 0.5575 15 1.25 15H17.75C18.4425 15 19 14.4425 19 13.75V10.75H11.75C11.0662 10.75 10.5 10.1839 10.5 9.5V5.5C10.5 4.81615 11.0662 4.25 11.75 4.25H19V1.25C19 0.5575 18.4425 0 17.75 0H1.25ZM11.75 4.75C11.3345 4.75 11 5.0845 11 5.5V9.5C11 9.9155 11.3345 10.25 11.75 10.25H20.25C20.6655 10.25 21 9.9155 21 9.5V5.5C21 5.0845 20.6655 4.75 20.25 4.75H11.75ZM13.75 6.75C14.1642 6.75 14.5 7.08579 14.5 7.5C14.5 7.91421 14.1642 8.25 13.75 8.25C13.3358 8.25 13 7.91421 13 7.5C13 7.08579 13.3358 6.75 13.75 6.75Z" fill="#212630" fill-opacity="0.6"/>
</svg>
