<svg width="16" height="16" viewBox="0 0 16 16" fill="none" xmlns="http://www.w3.org/2000/svg">
<path d="M9.8063 8.00006L15.6127 2.23647C15.8709 1.97833 15.9998 1.63435 15.9998 1.29016C15.9998 0.946157 15.8277 0.644995 15.6127 0.42988C15.0536 -0.0432074 14.2364 -0.0432074 13.8063 0.42988L7.99989 6.19347L2.2363 0.387023C1.97816 0.128885 1.63418 0 1.28999 0C0.94599 0 0.644829 0.172092 0.429714 0.387023C0.214599 0.645161 0.0857143 0.946147 0.0857143 1.29034C0.0857143 1.67736 0.214784 1.97854 0.472737 2.19366L6.19347 8.00011L0.387023 13.7637C0.128885 14.0218 0 14.3658 0 14.71C0 15.054 0.172092 15.3552 0.387023 15.5703C0.645161 15.7854 0.946147 15.9143 1.29034 15.9143C1.63434 15.9143 1.97854 15.7852 2.19366 15.5273L8.00011 9.80653L13.7637 15.613C14.0218 15.8711 14.3228 16 14.667 16H14.71C15.054 16 15.3552 15.8279 15.5703 15.613C16.0434 15.0969 16.0434 14.2796 15.6133 13.8066L9.8063 8.00006Z" fill="white"/>
</svg>
